<svg width="481" height="541" viewBox="0 0 481 541" fill="none" xmlns="http://www.w3.org/2000/svg">
<path d="M0.725868 259.15L0.74752 268.866L98.0525 325.336L98.02 315.619L0.725868 259.15Z" fill="#D3D3DD"/>
<path d="M98.02 315.619L98.0525 325.336L195.986 268.866L195.953 259.15L98.02 315.619Z" fill="#E0DEE9"/>
<path d="M0.725861 259.15L98.02 315.619L195.953 259.15L98.6592 202.669L0.725861 259.15Z" fill="#EAEAF4"/>
<path d="M15.9033 111.868L16.315 257.646L98.2042 305.178L97.7925 159.4L15.9033 111.868Z" fill="#D3D3DD"/>
<path d="M97.7925 159.4L98.2042 305.178L180.635 257.646L180.223 111.868L97.7925 159.4Z" fill="#E0DEE9"/>
<path d="M15.9033 111.868L97.7925 159.4L180.223 111.868L98.3233 64.3465L15.9033 111.868Z" fill="#EAEAF4"/>
<path d="M158.979 175.609L159.012 190.724L172.174 183.139L172.131 168.024L158.979 175.609Z" fill="#2A313F"/>
<path d="M158.914 154.596L158.958 169.701L172.12 162.105L172.077 147.001L158.914 154.596Z" fill="#2A313F"/>
<path d="M158.849 133.562L158.903 148.678L172.055 141.093L172.023 125.977L158.849 133.562Z" fill="#2A313F"/>
<path d="M105.787 227.339L105.831 242.455L153.064 215.221L153.021 200.105L105.787 227.339Z" fill="#2A313F"/>
<path d="M105.733 206.316L105.766 221.431L152.999 194.197L152.956 179.082L105.733 206.316Z" fill="#2A313F"/>
<path d="M105.668 185.292L105.712 200.397L152.945 173.163L152.891 158.059L105.668 185.292Z" fill="#2A313F"/>
<path d="M105.614 164.269L105.647 179.385L152.88 152.151L152.837 137.035L105.614 164.269Z" fill="#2A313F"/>
<path d="M159.098 217.655L159.131 232.771L172.293 225.186L172.25 210.07L159.098 217.655Z" fill="#2A313F"/>
<path d="M159.033 196.643L159.077 211.758L172.239 204.163L172.196 189.047L159.033 196.643Z" fill="#2A313F"/>
<path d="M105.853 248.362L105.896 263.478L153.118 236.244L153.075 221.128L105.853 248.362Z" fill="#2A313F"/>
<path d="M77.0033 177.87L76.96 192.986L90.1334 200.581L90.1767 185.466L77.0033 177.87Z" fill="#2A313F"/>
<path d="M77.0683 156.836L77.025 171.951L90.1875 179.547L90.2308 164.432L77.0683 156.836Z" fill="#2A313F"/>
<path d="M23.5842 210.243L23.5409 225.348L70.7742 252.582L70.8175 237.477L23.5842 210.243Z" fill="#2A313F"/>
<path d="M23.6492 189.22L23.6059 204.336L70.8283 231.559L70.8717 216.454L23.6492 189.22Z" fill="#2A313F"/>
<path d="M23.7033 168.197L23.66 183.302L70.8933 210.536L70.9367 195.431L23.7033 168.197Z" fill="#2A313F"/>
<path d="M23.7683 147.163L23.725 162.278L70.9475 189.512L70.9908 174.397L23.7683 147.163Z" fill="#2A313F"/>
<path d="M23.8225 126.14L23.7792 141.255L71.0125 168.489L71.0558 153.373L23.8225 126.14Z" fill="#2A313F"/>
<path d="M76.8301 240.94L76.7759 256.044L89.9492 263.64L89.9925 248.535L76.8301 240.94Z" fill="#2A313F"/>
<path d="M76.8842 219.917L76.8408 235.032L90.0142 242.628L90.0467 227.512L76.8842 219.917Z" fill="#2A313F"/>
<path d="M76.9383 198.893L76.9058 213.998L90.0684 221.594L90.1117 206.489L76.9383 198.893Z" fill="#2A313F"/>
<path d="M16.2825 245.884L16.315 257.646L98.2042 305.178L98.2475 293.146L16.2825 245.884Z" fill="#3D5AF1"/>
<path d="M98.1717 293.146L98.2042 305.178L180.635 257.646L180.602 245.614L98.1717 293.146Z" fill="#3D5AF1"/>
<path d="M98.7133 113.805H97.7817L93.1017 116.51C96.4501 117.521 100.023 117.521 103.372 116.51L98.7133 113.805Z" fill="#2A313F"/>
<path d="M119.069 96.6659C107.152 90.8988 89.6242 90.8988 77.6208 96.6659L81.8458 99.122C91.4983 94.6858 105.224 94.6858 114.812 99.122L119.069 96.6659Z" fill="#2A313F"/>
<path d="M111.822 100.842C103.163 97.3258 93.4724 97.3258 84.8141 100.842L89.0717 103.309C95.0304 101.103 101.584 101.103 107.543 103.309L111.822 100.842Z" fill="#2A313F"/>
<path d="M103.437 105.679C100.082 104.662 96.4999 104.662 93.145 105.679L97.8033 108.384C98.1207 108.362 98.4392 108.362 98.7566 108.384L103.437 105.679Z" fill="#2A313F"/>
<path d="M93.5241 111.359C93.5025 111.18 93.5025 110.998 93.5241 110.818L88.8658 108.124C88.4515 108.501 88.1205 108.959 87.894 109.471C87.6675 109.982 87.5504 110.535 87.5504 111.094C87.5504 111.654 87.6675 112.207 87.894 112.718C88.1205 113.23 88.4515 113.688 88.8658 114.064L93.5241 111.359Z" fill="#2A313F"/>
<path d="M84.7816 116.434C80.99 113.188 81.0008 108.957 84.8358 105.755L80.5241 103.277C74.425 107.875 74.3926 114.313 80.4375 118.912L84.7816 116.434Z" fill="#2A313F"/>
<path d="M111.746 105.755C115.548 109.001 115.516 113.231 111.681 116.434L115.938 118.912C122.037 114.313 122.081 107.875 116.036 103.277L111.746 105.755Z" fill="#2A313F"/>
<path d="M77.5016 120.632C69.9183 115.071 69.9183 107.118 77.61 101.557L73.385 99.1004C63.3966 106.025 63.3316 116.153 73.255 123.077L77.5016 120.632Z" fill="#2A313F"/>
<path d="M114.682 123.077C105.04 127.503 91.2925 127.503 81.705 123.077L77.4583 125.523C89.375 131.29 106.903 131.29 118.896 125.523L114.682 123.077Z" fill="#2A313F"/>
<path d="M119.015 101.557C126.652 107.118 126.598 115.06 118.907 120.632L123.132 123.077C133.142 116.153 133.185 106.025 123.272 99.1112L119.015 101.557Z" fill="#2A313F"/>
<path d="M107.445 118.879C101.503 121.076 94.9703 121.076 89.0283 118.879L84.695 121.346C93.3571 124.862 103.051 124.862 111.713 121.346L107.445 118.879Z" fill="#2A313F"/>
<path d="M102.96 110.818C102.987 111.001 102.987 111.187 102.96 111.37L107.607 114.064C108.025 113.69 108.359 113.232 108.587 112.72C108.815 112.209 108.934 111.655 108.934 111.094C108.934 110.534 108.815 109.98 108.587 109.468C108.359 108.957 108.025 108.499 107.607 108.124L102.96 110.818Z" fill="#2A313F"/>
<path d="M143.444 341.685L143.477 351.401L240.771 407.882L240.749 398.165L143.444 341.685Z" fill="#D3D3DD"/>
<path d="M240.749 398.165L240.771 407.882L338.704 351.412L338.683 341.685L240.749 398.165Z" fill="#E0DEE9"/>
<path d="M143.444 341.685L240.749 398.165L338.682 341.685L241.377 285.215L143.444 341.685Z" fill="#EAEAF4"/>
<path d="M158.622 194.414L159.044 340.192L240.933 387.713L240.511 241.946L158.622 194.414Z" fill="#D3D3DD"/>
<path d="M240.511 241.946L240.933 387.713L323.353 340.181L322.942 194.414L240.511 241.946Z" fill="#E0DEE9"/>
<path d="M158.622 194.414L240.511 241.946L322.942 194.414L241.052 146.882L158.622 194.414Z" fill="#EAEAF4"/>
<path d="M301.698 258.154L301.741 273.27L314.903 265.674L314.86 250.559L301.698 258.154Z" fill="#2A313F"/>
<path d="M301.632 237.131L301.676 252.236L314.838 244.651L314.795 229.546L301.632 237.131Z" fill="#2A313F"/>
<path d="M301.578 216.108L301.622 231.223L314.784 223.628L314.741 208.512L301.578 216.108Z" fill="#2A313F"/>
<path d="M248.517 309.885L248.56 325L295.782 297.766L295.739 282.651L248.517 309.885Z" fill="#2A313F"/>
<path d="M248.452 288.862L248.495 303.977L295.717 276.732L295.685 261.628L248.452 288.862Z" fill="#2A313F"/>
<path d="M248.387 267.838L248.43 282.943L295.663 255.709L295.62 240.604L248.387 267.838Z" fill="#2A313F"/>
<path d="M248.333 246.804L248.376 261.92L295.598 234.686L295.555 219.581L248.333 246.804Z" fill="#2A313F"/>
<path d="M301.817 300.201L301.86 315.316L315.022 307.721L314.979 292.616L301.817 300.201Z" fill="#2A313F"/>
<path d="M301.752 279.178L301.795 294.293L314.958 286.708L314.914 271.593L301.752 279.178Z" fill="#2A313F"/>
<path d="M248.571 330.908L248.614 346.024L295.837 318.79L295.793 303.674L248.571 330.908Z" fill="#2A313F"/>
<path d="M219.722 260.405L219.678 275.52L232.852 283.116L232.895 268.001L219.722 260.405Z" fill="#2A313F"/>
<path d="M219.787 239.382L219.743 254.497L232.917 262.093L232.96 246.977L219.787 239.382Z" fill="#2A313F"/>
<path d="M166.313 292.789L166.27 307.894L213.493 335.128L213.536 320.023L166.313 292.789Z" fill="#2A313F"/>
<path d="M166.368 271.755L166.324 286.871L213.558 314.105L213.601 298.989L166.368 271.755Z" fill="#2A313F"/>
<path d="M166.433 250.743L166.389 265.847L213.612 293.081L213.655 277.966L166.433 250.743Z" fill="#2A313F"/>
<path d="M166.487 229.709L166.443 244.824L213.677 272.058L213.72 256.943L166.487 229.709Z" fill="#2A313F"/>
<path d="M166.552 208.685L166.508 223.801L213.731 251.024L213.774 235.908L166.552 208.685Z" fill="#2A313F"/>
<path d="M219.548 323.486L219.505 338.59L232.678 346.186L232.711 331.081L219.548 323.486Z" fill="#2A313F"/>
<path d="M219.603 302.451L219.57 317.567L232.732 325.163L232.776 310.047L219.603 302.451Z" fill="#2A313F"/>
<path d="M219.667 281.439L219.624 296.544L232.787 304.139L232.841 289.035L219.667 281.439Z" fill="#2A313F"/>
<path d="M159.001 328.43L159.033 340.181L240.922 387.713L240.955 375.681L159.001 328.43Z" fill="#3D5AF1"/>
<path d="M240.89 375.681L240.923 387.713L323.353 340.181L323.321 328.149L240.89 375.681Z" fill="#3D5AF1"/>
<path d="M241.432 196.34C241.125 196.361 240.817 196.361 240.511 196.34L235.82 199.045C239.168 200.062 242.742 200.062 246.09 199.045L241.432 196.34Z" fill="#2A313F"/>
<path d="M261.788 179.212C249.871 173.445 232.353 173.445 220.339 179.212L224.564 181.657C234.217 177.221 247.953 177.221 257.541 181.657L261.788 179.212Z" fill="#2A313F"/>
<path d="M254.551 183.377C245.887 179.872 236.197 179.872 227.533 183.377L231.79 185.855C237.752 183.648 244.309 183.648 250.272 185.855L254.551 183.377Z" fill="#2A313F"/>
<path d="M246.155 188.268C242.804 187.251 239.225 187.251 235.874 188.268L240.522 190.962H241.475L246.155 188.268Z" fill="#2A313F"/>
<path d="M236.297 193.905C236.275 193.726 236.275 193.544 236.297 193.364L231.638 190.659C231.226 191.036 230.896 191.495 230.67 192.007C230.445 192.518 230.328 193.071 230.328 193.629C230.328 194.188 230.445 194.741 230.67 195.252C230.896 195.763 231.226 196.222 231.638 196.599L236.297 193.905Z" fill="#2A313F"/>
<path d="M227.5 198.98C223.708 195.734 223.73 191.492 227.554 188.29L223.307 185.823C217.208 190.41 217.165 196.859 223.21 201.447L227.5 198.98Z" fill="#2A313F"/>
<path d="M254.475 188.268C258.267 191.514 258.234 195.755 254.41 198.958L258.667 201.425C264.767 196.837 264.799 190.389 258.754 185.801L254.475 188.268Z" fill="#2A313F"/>
<path d="M220.274 203.167C212.691 197.616 212.691 189.664 220.383 184.102L216.158 181.646C206.158 188.571 206.093 198.698 216.027 205.623L220.274 203.167Z" fill="#2A313F"/>
<path d="M257.4 205.58C247.769 210.005 234.022 210.005 224.434 205.58L220.188 208.025C232.104 213.792 249.622 213.792 261.625 208.025L257.4 205.58Z" fill="#2A313F"/>
<path d="M261.744 184.102C269.328 189.653 269.328 197.606 261.636 203.167L265.85 205.58C275.86 198.655 275.914 188.528 265.991 181.603L261.744 184.102Z" fill="#2A313F"/>
<path d="M250.174 201.414C244.232 203.611 237.699 203.611 231.758 201.414L227.424 203.892C236.082 207.409 245.773 207.409 254.432 203.892L250.174 201.414Z" fill="#2A313F"/>
<path d="M245.678 193.364C245.711 193.543 245.711 193.726 245.678 193.905L250.337 196.61C250.753 196.234 251.085 195.775 251.313 195.262C251.54 194.75 251.658 194.195 251.658 193.635C251.658 193.074 251.54 192.52 251.313 192.007C251.085 191.495 250.753 191.036 250.337 190.659L245.678 193.364Z" fill="#2A313F"/>
<g opacity="0.4">
<g opacity="0.4">
<path opacity="0.4" d="M65.9208 495.891C63.9058 490.481 70.98 482.832 81.7266 478.85C92.4733 474.868 102.819 476.08 104.834 481.49C106.849 486.9 99.775 494.55 89.0283 498.542C78.2817 502.535 67.9467 501.345 65.9208 495.913" fill="#D6D8E5"/>
</g>
</g>
<g opacity="0.4">
<g opacity="0.4">
<path opacity="0.4" d="M214.663 406.139C211.976 411.971 200.46 412.415 188.922 407.135C177.385 401.855 170.213 392.842 172.889 387.01C175.565 381.178 187.081 380.734 198.618 386.014C210.156 391.294 217.338 400.307 214.663 406.139Z" fill="#D6D8E5"/>
</g>
</g>
<path d="M85.7567 355.826C84.7708 354.236 77.2309 353.197 74.75 359.581C73.8075 362.005 73.9484 368.237 73.1575 372.078C72.3667 375.919 70.525 378.17 69.8534 381.329C69.1817 384.489 70.2759 389.769 77.8808 390.699C85.4858 391.63 91.3467 388.968 93.145 386.545C94.9433 384.121 94.9867 378.971 93.145 376.201C91.3033 373.431 89.895 371.191 89.895 367.545L85.7567 355.826Z" fill="#3A2C6D"/>
<path d="M80.7733 354.723C80.7733 354.723 86.4608 353.089 89.9058 356.151C91.0399 357.198 91.8656 358.535 92.2934 360.017C92.7211 361.499 92.7346 363.069 92.3325 364.558C91.8666 366.354 90.9566 368.8 89.5266 368.886C88.0966 368.973 80.7733 354.68 80.7733 354.68" fill="#3A2C6D"/>
<path d="M78.6066 370.195C78.6066 370.195 78.975 376.525 78.8666 376.99C78.7583 377.456 76.375 377.899 75.7141 378.451C75.0533 379.003 79.1592 385.419 81.25 386.371C83.3408 387.324 89.7975 384.889 90.2525 381.676C90.6642 378.722 88.4 376.417 87.5225 375.616C86.9309 375.576 86.3374 375.576 85.7458 375.616L85.5508 372.554C82.7233 371.645 78.6066 370.239 78.6066 370.239" fill="#FFCEA9"/>
<path d="M93.9141 382.141C93.9141 381.968 94.8675 382.476 94.8892 382.487C94.9108 382.498 95.3333 398.717 96.135 400.189C98.1608 403.629 103.534 409.461 103.664 410.11C104.054 412.08 102.917 410.316 101.075 410.11C99.9917 409.981 93.9358 403.813 92.56 402.407L92.4733 402.461C92.4733 402.407 92.4733 402.353 92.4733 402.298L92.2892 402.114C92.2571 401.679 92.2571 401.241 92.2892 400.805C89.765 383.201 92.885 382.022 93.9792 382.152" fill="#FFCEA9"/>
<path d="M77.74 377.618C75.9633 377.899 73.9266 378.841 73.645 379.782C72.9122 383.288 73.0874 386.923 74.1541 390.342C75.6925 394.411 76.7325 396.997 77.6208 398.749C77.6208 398.749 85.3125 401.995 91.52 398.208C91.52 398.208 91.9425 393.88 91.975 391.511C97.7059 386.523 92.8092 380.366 87.9558 375.584C87.3718 375.535 86.7848 375.535 86.2008 375.584C86.2008 375.584 90.5342 380.691 87.5225 383.601C81.0766 381.654 79.7983 378.765 77.7725 377.607" fill="#F4F4F4"/>
<path d="M90.4366 362.362C89.7975 358.304 86.8508 355.231 82.6583 355.48C80.9727 355.574 79.3591 356.195 78.0455 357.254C76.7318 358.313 75.7842 359.757 75.3366 361.383C74.8889 363.009 74.9637 364.734 75.5505 366.315C76.1372 367.897 77.2062 369.254 78.6067 370.195C78.7505 370.811 78.9687 371.407 79.2567 371.97C80.7408 373.701 84.6733 374.794 85.9842 374.816C87.0675 374.816 88.0858 373.734 89.1367 372.035C91.3033 368.399 90.7833 364.363 90.4366 362.362Z" fill="#FFCEA9"/>
<path d="M81.3583 355.545C78.4225 356.129 75.9958 356.952 75.205 359.873C74.6525 361.853 73.9375 365.651 74.62 367.242L75.0425 368.399L78.6067 370.228C78.6067 370.228 80.2642 368.843 79.755 364.818C79.7684 364.268 79.9416 363.735 80.2533 363.281C80.4756 362.9 80.6399 362.488 80.7408 362.059C81.163 360.962 81.9884 360.068 83.0483 359.559C85.7025 358.077 89.5483 359.365 90.1333 359.895C89.3912 358.276 88.1136 356.962 86.5155 356.174C84.9173 355.386 83.0962 355.171 81.3583 355.567" fill="#3A2C6D"/>
<path d="M76.0066 484.033C77.4908 485.245 79.8092 484.411 79.9283 484.52C81.6563 486.006 83.4646 487.397 85.345 488.685C86.2766 489.41 87.7174 490.384 87.4574 491.791C86.9916 494.29 82.9724 493.522 81.4558 492.754C79.9391 491.985 78.7041 490.719 77.2741 489.832C76.245 489.194 75.2375 488.869 75.1075 487.571C75.01 486.792 75.7358 484.011 75.9958 484.033" fill="#38226D"/>
<path d="M75.1075 487.051C75.3133 488.296 76.2991 488.631 77.2741 489.215C78.7366 490.124 80.015 491.38 81.5316 492.191C83.0483 493.003 86.4175 493.608 87.4033 491.812C86.8725 494.236 82.9291 493.468 81.4233 492.71C79.9175 491.953 78.6716 490.676 77.2416 489.789C76.2125 489.151 75.205 488.826 75.075 487.528C75.0541 487.355 75.0541 487.181 75.075 487.008" fill="#3D5AF1"/>
<path d="M86.45 481.955C87.815 483.037 89.8733 482.442 89.9817 482.54C91.5718 483.896 93.2354 485.164 94.965 486.337C95.81 486.997 97.1317 487.895 96.9042 489.183C96.4708 491.477 92.7875 490.774 91.4008 490.07C90.0142 489.367 88.8767 488.198 87.5658 487.387C86.6342 486.803 85.7133 486.5 85.5616 485.32C85.6054 484.147 85.9088 482.998 86.45 481.955Z" fill="#38226D"/>
<path d="M85.5833 484.844C85.7675 485.926 86.6667 486.294 87.5983 486.868C88.9417 487.69 90.1117 488.891 91.4983 489.594C92.885 490.297 95.9833 490.882 96.915 489.248C96.4275 491.412 92.8092 490.763 91.4333 490.07C90.0575 489.378 88.92 488.198 87.5983 487.387C86.6667 486.803 85.7458 486.5 85.5942 485.32C85.5796 485.162 85.5796 485.003 85.5942 484.844" fill="#3D5AF1"/>
<path d="M94.4775 412.761C93.8275 407.633 91.9316 400.189 91.9316 400.189C90.143 401.026 88.2067 401.504 86.2333 401.595C83.3428 401.584 80.4597 401.305 77.6208 400.762C76.6931 402.379 75.6805 403.947 74.5875 405.458C73.1033 407.503 70.2541 411.95 70.915 419.859C71.37 424.999 74.2516 446.801 74.2516 446.801C73.1327 450.468 72.5382 454.275 72.4858 458.108C72.7562 462.661 73.3573 467.188 74.2841 471.655L76.0066 484.033C76.0066 484.033 78.2925 485.688 79.9283 484.52L79.7225 472.412C79.9175 469.447 80.21 465.065 80.3941 462.274C80.7083 457.729 81.4775 450.502 81.7592 448.705C82.0408 446.909 82.5717 443.75 82.8425 440.212C83.1133 436.674 84.4567 418.734 84.4567 418.734L84.6408 422.099C84.6408 422.099 84.8141 427.509 85.605 434.282C86.3958 441.056 86.6883 444.02 86.6883 444.02C85.9476 445.372 85.4282 446.833 85.15 448.348C85.0091 449.809 83.3408 461.332 84.3375 467.175L86.385 482.063C86.8934 482.413 87.4775 482.637 88.0895 482.718C88.7014 482.799 89.3238 482.734 89.9058 482.529L91.1083 467.521C91.9208 461.808 93.6216 449.712 93.8925 448.132C94.4649 444.962 94.8052 441.754 94.9108 438.535C95.3008 432.043 95.16 417.89 94.4991 412.761" fill="#FFCEA9"/>
<path d="M77.6208 398.76L73.2008 407.633C73.2008 407.633 66.4516 417.501 73.4391 442.852L72.1283 450.675C72.1283 450.675 85.3667 459.158 94.2175 450.675C94.2175 450.675 97.2942 427.249 95.6583 416.44C94.7519 410.213 93.3721 404.064 91.5308 398.046C91.5308 398.046 89.3641 400.437 78.2058 398.858" fill="#FF7B7B"/>
<path d="M87.9558 375.595C87.9558 375.595 91.4658 374.513 95.2033 382.303L93.8058 383.136C93.8058 383.136 90.1333 377.596 87.9558 375.562" fill="#EDEDED"/>
<path d="M115.386 417.76L100.273 408.985L89.4183 415.239L104.542 424.014L115.386 417.76Z" fill="#F4F4F4"/>
<path d="M102.191 409.624C103.138 409.724 104.054 410.023 104.878 410.5C105.171 410.765 105.491 411.001 105.831 411.203C105.982 411.279 106.123 411.376 106.286 411.441C106.518 411.517 106.724 411.656 106.882 411.842C107.053 412.086 107.147 412.376 107.152 412.675C107.205 413.034 107.205 413.398 107.152 413.757C107.022 414.298 106.459 414.265 106.156 413.887C106.014 413.694 105.928 413.465 105.907 413.227C105.901 412.996 105.841 412.771 105.729 412.569C105.618 412.368 105.46 412.196 105.267 412.069L101.66 409.829C101.706 409.747 101.777 409.682 101.863 409.643C101.949 409.604 102.044 409.594 102.137 409.613" fill="#FFCEA9"/>
<path d="M73.4608 382.574C73.9592 380.518 75.5733 381.178 76.9492 379.977C80.1992 384.521 78.0325 396.813 77.5992 398.122L89.9383 405.977L90.7617 406.497C92.1728 407.408 93.7247 408.08 95.355 408.487C96.59 408.628 97.2292 410.359 98.5508 410.522C98.6512 410.525 98.7484 410.557 98.8303 410.615C98.9122 410.673 98.975 410.754 99.0109 410.848C99.0468 410.942 99.0541 411.044 99.032 411.142C99.0099 411.24 98.9594 411.329 98.8867 411.398C98.3558 411.907 96.9475 411.485 95.9833 410.316C95.9833 410.316 95.9833 410.37 95.9833 410.403C95.9719 410.583 95.9154 410.758 95.8189 410.911C95.7223 411.064 95.589 411.191 95.4308 411.279C95.3582 411.311 95.2817 411.332 95.2033 411.344C95.202 411.427 95.1796 411.509 95.1383 411.582C95.0671 411.723 94.963 411.845 94.8348 411.937C94.7065 412.029 94.558 412.089 94.4017 412.112C94.3368 412.324 94.1987 412.505 94.0121 412.624C93.8255 412.743 93.6026 412.792 93.3833 412.761C93.1036 412.749 92.8396 412.629 92.6467 412.426C91.5935 412.022 90.6639 411.35 89.9492 410.478C89.6133 410.056 88.4325 409.061 87.945 408.617C84.5975 407.189 74.555 402.904 74.1108 402.288C73.4392 401.379 72.735 385.452 73.45 382.519" fill="#FFCEA9"/>
<path d="M72.3341 388.103C72.3341 388.103 76.2883 389.877 79.56 388.222L79.0833 382.054C79.0833 382.054 79.0833 378.732 76.0717 378.408C73.06 378.083 71.5975 381.87 72.3341 388.146" fill="#EDEDED"/>
<path d="M200.395 43.28L200.081 43.1393C199.669 42.9662 199.258 42.8147 198.846 42.6741H198.77C198.391 42.5442 198.012 42.436 197.687 42.3278H197.448C196.857 42.1642 196.256 42.0341 195.65 41.9383H195.52C195.054 41.8734 194.588 41.8301 194.133 41.8085H193.862C193.429 41.8085 193.007 41.8085 192.584 41.8085H192.313C191.988 41.8085 191.674 41.8734 191.36 41.9167H191.068C190.699 41.9816 190.331 42.0682 189.984 42.1655H189.854C189.549 42.2539 189.249 42.3586 188.955 42.4793L188.663 42.6092L187.872 42.9879L187.601 43.1285L225.268 21.2613L225.388 21.1964L225.539 21.1206L226.33 20.7419L226.482 20.6662L226.612 20.6121C226.915 20.4931 227.218 20.3849 227.522 20.2983H227.63C227.988 20.2009 228.345 20.1144 228.713 20.0495H228.822H229.006C229.32 20.0495 229.634 19.9629 229.959 19.9413H230.143H230.23C230.653 19.9413 231.075 19.9413 231.508 19.9413H231.606H231.779C232.234 19.9413 232.689 20.0062 233.166 20.0711H233.274C233.881 20.1669 234.481 20.297 235.073 20.4606H235.213H235.311C235.69 20.5688 236.069 20.677 236.394 20.8069H236.47C236.882 20.9475 237.293 21.099 237.705 21.2721H237.803L238.019 21.3803C238.398 21.5426 238.788 21.7157 239.178 21.9105C239.308 21.9754 239.449 22.0295 239.579 22.1053C240.067 22.3433 240.554 22.603 241.042 22.8951L203.309 44.7948C202.822 44.5027 202.334 44.243 201.847 44.0049L201.446 43.8102C201.056 43.6154 200.677 43.4423 200.287 43.28" fill="#EAEAF4"/>
<path d="M222.441 35.1866C221.813 34.9053 221.184 34.6456 220.578 34.4292H220.491C219.965 34.2527 219.43 34.1046 218.888 33.9856C218.584 33.9063 218.281 33.8414 217.978 33.7909C217.62 33.7147 217.258 33.6569 216.894 33.6177L216.244 33.5528C215.768 33.5528 215.302 33.5528 214.847 33.5528H214.533C213.994 33.5873 213.459 33.656 212.929 33.7584L212.539 33.845C212.136 33.9389 211.738 34.0545 211.348 34.1912L210.979 34.321C210.488 34.5086 210.013 34.7366 209.56 35.0027L247.184 13.0381L247.303 12.9732C247.655 12.7773 248.016 12.6003 248.387 12.443L248.603 12.3673L248.972 12.2374L249.535 12.0318L250.174 11.902L250.564 11.8154H250.77C251.204 11.7387 251.641 11.6846 252.081 11.6531H252.482C252.818 11.6531 253.164 11.6531 253.565 11.6531C253.684 11.6531 253.803 11.6531 253.933 11.6531L254.583 11.7289C254.778 11.7289 254.973 11.7289 255.179 11.7289L255.721 11.8479C256.024 11.8984 256.328 11.9633 256.631 12.0427L257.108 12.14C257.476 12.2374 257.855 12.3564 258.191 12.4863H258.278C258.7 12.6378 259.133 12.8001 259.578 12.984L260.141 13.2329L260.672 13.4817C261.333 13.7847 261.993 14.1201 262.665 14.5096C263.337 14.8991 264.29 15.5051 265.092 16.0785L227.359 37.9782C226.568 37.4156 225.756 36.8962 224.933 36.4093C224.109 35.9224 223.6 35.6844 222.939 35.3814L222.408 35.1434" fill="#EAEAF4"/>
<path d="M258.082 24.5073L257.508 24.2584C256.945 24.0312 256.425 23.8148 255.829 23.6201L255.515 23.501C254.854 23.2846 254.204 23.0791 253.554 22.9059C253.186 22.7977 252.807 22.7112 252.471 22.6246L251.918 22.4948C251.388 22.3758 250.835 22.2892 250.348 22.2026H250.261C249.741 22.1269 249.178 22.0728 248.723 22.0187H248.235H247.336C246.632 21.9807 245.927 21.9807 245.223 22.0187H244.855C244.303 22.0187 243.772 22.1269 243.208 22.2135L242.699 22.3C242.078 22.4054 241.463 22.5463 240.858 22.722H240.782C240.219 22.8875 239.666 23.0825 239.124 23.3063L238.658 23.501C238.193 23.7066 237.748 23.923 237.304 24.1611L236.871 24.3883L274.593 2.45613L274.788 2.34793L275.026 2.22891C275.459 1.99087 275.914 1.77447 276.38 1.56889L276.608 1.44987L276.824 1.37413C277.366 1.15036 277.919 0.955332 278.482 0.789854H278.536C279.148 0.606017 279.77 0.457894 280.399 0.346234H280.616H280.908C281.45 0.259674 281.992 0.194754 282.555 0.151474C282.645 0.15677 282.736 0.15677 282.826 0.151474H282.913C283.634 0.111984 284.357 0.111984 285.079 0.151474H285.274H285.967H286.455C286.953 0.205574 287.473 0.259674 287.982 0.335414H288.058C288.578 0.411154 289.142 0.508534 289.629 0.627554C289.824 0.627554 290.008 0.714114 290.192 0.757394C290.377 0.800674 290.864 0.908874 291.2 1.00625H291.308C291.958 1.17937 292.608 1.38495 293.269 1.60135L293.583 1.72037C294.136 1.91513 294.667 2.13153 295.263 2.35875L295.447 2.42367C295.577 2.42367 295.707 2.55351 295.837 2.59679C296.433 2.85647 297.028 3.12697 297.635 3.41911L298.296 3.74371C299.076 4.13323 299.856 4.54439 300.636 4.99883C301.719 5.61557 302.802 6.28642 303.821 6.98972C304.189 7.23857 304.536 7.5199 304.904 7.77958C305.576 8.25566 306.258 8.73174 306.919 9.24028C307.342 9.56488 307.742 9.92194 308.154 10.3223C308.75 10.7984 309.346 11.2744 309.931 11.783C310.516 12.2915 310.776 12.5728 311.209 12.9732C311.642 13.3735 312.292 13.9686 312.845 14.4988L312.921 14.5637C313.73 15.3788 314.531 16.212 315.326 17.0631L315.976 17.7881C316.279 18.1235 316.582 18.4481 316.886 18.7943C317.189 19.1406 317.276 19.2704 317.471 19.5085C318.034 20.1793 318.554 20.8501 319.139 21.5318C319.356 21.8131 319.594 22.0728 319.822 22.3649C320.049 22.6571 320.136 22.7977 320.298 23.0141C320.71 23.5443 321.1 24.0961 321.501 24.6371C321.75 24.9834 322.01 25.308 322.248 25.6542C322.487 26.0005 322.573 26.1519 322.747 26.39C323.072 26.8661 323.397 27.353 323.711 27.8399C324.025 28.3268 324.166 28.4891 324.382 28.8245L324.967 29.7875L325.791 31.1291L326.267 31.919C326.538 32.3734 326.777 32.8279 327.037 33.2823L327.719 34.5158L327.99 35.0027C328.358 35.6952 328.705 36.3985 329.073 37.1018L329.496 37.9457L329.582 38.1189C330.092 39.2009 330.568 40.2179 331.034 41.2783L331.099 41.4406C331.229 41.7327 331.337 42.0357 331.467 42.3387C331.771 43.0744 332.085 43.7994 332.367 44.5027C332.432 44.6541 332.475 44.7948 332.529 44.9463C332.713 45.4224 332.876 45.9093 333.049 46.3853C333.222 46.8614 333.439 47.4673 333.612 47.9434C333.677 48.1598 333.732 48.3654 333.797 48.571C333.992 49.1661 334.165 49.7612 334.349 50.3563C334.533 50.9514 334.631 51.2327 334.75 51.6763C334.804 51.8819 334.847 52.0875 334.902 52.3039C335.107 53.0829 335.292 53.8511 335.476 54.6302C335.573 55.0413 335.692 55.4525 335.779 55.8528C335.866 56.2532 335.92 56.5237 335.985 56.8591C336.364 57.0755 336.754 57.2703 337.144 57.4975C337.967 57.9736 338.769 58.4929 339.571 59.0231L339.982 59.2936C340.752 59.813 341.51 60.3756 342.257 60.9382L342.691 61.2845C343.449 61.8796 344.197 62.4855 344.933 63.1347L345.128 63.3078C345.843 63.9354 346.537 64.5954 347.23 65.2662L347.447 65.461L347.577 65.6017C348.107 66.121 348.66 66.6837 349.147 67.203L349.223 67.2896C349.711 67.8198 350.198 68.3716 350.675 68.8909L350.805 69.0424L350.978 69.248C351.747 70.1461 352.506 71.0658 353.242 72.0071L353.307 72.0828L353.47 72.3101C354.055 73.0675 354.629 73.8465 355.182 74.6255L355.355 74.8636C355.386 74.899 355.412 74.9391 355.431 74.9826C355.972 75.74 356.514 76.5191 356.991 77.2981L357.142 77.5253C357.217 77.6368 357.286 77.7524 357.348 77.8715C357.76 78.5135 358.161 79.1627 358.551 79.8191C358.606 79.9239 358.667 80.0251 358.735 80.1221L358.8 80.2411C359.244 80.9985 359.667 81.7667 360.078 82.535L360.176 82.7189L360.371 83.0976C360.696 83.7107 361.01 84.3275 361.313 84.9478L361.508 85.3373C361.54 85.4151 361.576 85.491 361.617 85.5646C361.985 86.3544 362.353 87.1335 362.7 87.9341V87.9991L362.797 88.2587C363.112 88.9729 363.404 89.687 363.686 90.4227L363.827 90.7798C363.827 90.8664 363.892 90.9746 363.935 91.0719C364.26 91.9159 364.563 92.7707 364.856 93.6255L364.91 93.7769C365.202 94.6642 365.462 95.5514 365.722 96.4278C365.748 96.5414 365.781 96.6534 365.82 96.7633C365.816 96.8245 365.816 96.886 365.82 96.9472C366.102 97.9643 366.351 98.9922 366.578 100.02L366.643 100.291C366.643 100.431 366.697 100.561 366.719 100.691C366.806 101.091 366.882 101.502 366.947 101.903C367.012 102.303 367.055 102.455 367.098 102.736C367.142 103.017 367.228 103.558 367.293 103.98C367.293 104.175 367.347 104.37 367.38 104.564C367.375 104.615 367.375 104.666 367.38 104.716C367.488 105.592 367.575 106.48 367.64 107.345V107.908C367.64 108.806 367.727 109.704 367.727 110.58C367.727 117.256 366.08 122.569 363.274 126.28C362.045 127.913 360.506 129.288 358.746 130.327L321.013 152.216C326.538 148.97 329.972 142.186 329.994 132.48C329.994 131.604 329.994 130.706 329.907 129.808V129.256C329.842 128.379 329.756 127.492 329.647 126.616L329.55 125.88C329.485 125.458 329.431 125.047 329.355 124.636C329.279 124.224 329.257 124.084 329.214 123.802C329.171 123.521 329.062 122.991 328.976 122.591C328.976 122.363 328.878 122.147 328.835 121.92C328.608 120.903 328.358 119.875 328.077 118.847C328.077 118.674 327.979 118.501 327.936 118.328C327.676 117.44 327.416 116.553 327.123 115.677L327.058 115.482C326.777 114.616 326.462 113.772 326.137 112.918C326.062 112.701 325.975 112.485 325.888 112.268C325.607 111.554 325.314 110.829 325.011 110.104C324.957 109.996 324.913 109.888 324.87 109.78C324.523 108.979 324.155 108.2 323.787 107.41L323.483 106.793C323.18 106.18 322.866 105.564 322.541 104.943L322.248 104.381C321.837 103.612 321.414 102.844 320.97 102.098L320.71 101.665C320.331 101.005 319.93 100.356 319.518 99.7063L319.161 99.1437C318.662 98.3646 318.142 97.5856 317.601 96.8174L317.362 96.4819C316.799 95.6921 316.225 94.913 315.64 94.1556L315.413 93.8527C314.676 92.9113 313.917 91.9917 313.148 91.0936L312.845 90.7365C312.368 90.1955 311.881 89.6545 311.393 89.146L311.317 89.0486C310.797 88.5076 310.234 87.9666 309.747 87.4473L309.4 87.1118C308.707 86.441 308.002 85.781 307.298 85.1534L307.103 84.9803C306.381 84.3383 305.634 83.7216 304.861 83.1301L304.427 82.7838C303.68 82.2104 302.922 81.7018 302.153 81.1392L301.752 80.8687C300.95 80.3385 300.137 79.7867 299.325 79.3539L298.155 78.7047C298.003 77.9689 297.819 77.2223 297.646 76.4758C297.472 75.7292 297.277 74.9285 297.072 74.1495C296.866 73.3704 296.714 72.8511 296.519 72.2019C296.324 71.5527 296.162 71.0117 295.967 70.4166C295.772 69.8215 295.479 68.9667 295.219 68.2526C295.046 67.7657 294.883 67.2788 294.699 66.8027C294.363 65.9154 294.006 65.039 293.616 64.1626C293.486 63.8596 293.378 63.5459 293.247 63.2537C292.738 62.0743 292.164 60.9166 291.644 59.7589L291.211 58.9149C290.788 58.0493 290.344 57.1837 289.878 56.3289C289.651 55.9178 289.423 55.5066 289.185 55.0954C288.781 54.3741 288.369 53.6528 287.95 52.9314C287.679 52.477 287.408 52.0226 287.127 51.5789C286.715 50.9189 286.303 50.2697 285.87 49.6313C285.437 48.993 285.231 48.6575 284.906 48.1815C284.581 47.7054 284.191 47.067 283.747 46.526C283.302 45.985 282.956 45.444 282.544 44.8922C282.132 44.3404 281.775 43.9076 281.385 43.4207C280.833 42.739 280.302 42.0682 279.717 41.3973C279.132 40.7265 278.731 40.2396 278.222 39.6769C278.005 39.4281 277.788 39.19 277.561 38.952C276.759 38.072 275.936 37.2172 275.091 36.3877C274.549 35.8575 274.008 35.3057 273.433 34.8404C272.859 34.3751 272.61 34.0505 272.177 33.6827C271.743 33.3148 270.985 32.6872 270.389 32.1895C269.978 31.8541 269.577 31.5078 269.165 31.1832C268.504 30.6747 267.822 30.1986 267.139 29.7117L266.056 28.9327C264.972 28.2294 263.889 27.5585 262.871 26.9418C262.091 26.4874 261.311 26.0762 260.531 25.6867L259.87 25.3621C259.263 25.0699 258.668 24.7994 258.072 24.5506" fill="#EAEAF4"/>
<path d="M262.882 26.8985C245.819 17.0631 231.465 22.2134 227.348 38.0215C226.567 37.4571 225.757 36.9335 224.922 36.4526C214.164 30.2527 205.227 34.0722 203.418 44.8272C191.024 37.6644 181.274 43.28 181.274 57.0539C181.274 69.8431 189.583 85.1858 200.384 92.9221C201.273 93.5497 202.118 94.1124 202.984 94.6101C203.791 95.0768 204.623 95.4994 205.476 95.876L299.228 150.106C316.247 159.92 330.081 152.053 330.135 132.513C330.189 112.972 316.453 89.2325 299.433 79.3971C299.033 79.1591 298.653 78.9644 298.263 78.748C294.233 58.3306 279.955 36.7231 262.925 26.8985" fill="#D3D3DD"/>
<path d="M144.192 105.949C145.893 108.984 147.96 111.8 150.345 114.335C151.017 115.103 156.141 113.156 155.068 112.604C153.996 112.052 150.638 107.378 148.958 104.262C147.549 100.538 146.351 96.7377 145.372 92.8789C144.289 89.0702 143.412 83.4763 142.642 80.8362C142.444 79.8599 141.967 78.9617 141.269 78.2496C140.572 77.5374 139.683 77.0417 138.71 76.822C136.868 76.4 135.677 76.8977 136.012 79.1266C136.597 83.0435 139.663 98.2456 144.192 105.928" fill="#FFCEA9"/>
<path d="M141.256 165.546C142.838 166.844 145.188 165.665 145.297 165.784C147.167 167.509 149.127 169.135 151.168 170.653C152.154 171.432 153.703 172.482 153.422 173.975C152.923 176.647 148.633 175.825 147.019 175.003C145.405 174.18 144.083 172.839 142.545 171.887C141.462 171.205 140.378 170.859 140.216 169.474C140.108 168.651 140.963 165.514 141.299 165.546" fill="#38226D"/>
<path d="M140.237 168.868C140.443 170.188 141.505 170.556 142.588 171.226C144.137 172.189 145.513 173.585 147.128 174.397C148.742 175.208 152.349 175.901 153.4 173.996C152.826 176.572 148.623 175.76 147.019 174.949C145.416 174.137 144.083 172.785 142.545 171.832C141.462 171.151 140.378 170.805 140.216 169.42C140.19 169.237 140.19 169.051 140.216 168.868" fill="#3D5AF1"/>
<path d="M157.365 156.219C158.957 157.518 161.698 156.1 161.861 156.219C163.508 157.899 165.255 159.478 167.093 160.947C168.09 161.727 169.628 162.765 169.357 164.258C168.848 166.942 164.569 166.119 162.944 165.34C161.319 164.561 160.008 163.176 158.481 162.213C157.397 161.543 156.314 161.186 156.141 159.811C156.043 158.978 157.083 156.23 157.365 156.262" fill="#38226D"/>
<path d="M156.184 159.4C156.401 160.72 157.462 161.088 158.546 161.759C160.095 162.722 161.471 164.118 163.085 164.929C164.699 165.741 168.307 166.433 169.357 164.529C168.783 167.104 164.569 166.293 162.977 165.492C161.384 164.691 160.041 163.328 158.502 162.365C157.419 161.683 156.336 161.337 156.173 159.963C156.152 159.776 156.152 159.587 156.173 159.4" fill="#3D5AF1"/>
<path d="M120.001 114.616C118.235 125.609 123.132 129.71 129.48 132.047C134.041 133.724 140.584 136.31 140.584 136.31C140.584 136.31 140.487 138.723 140.443 144.133C140.389 148.905 141.028 166.303 141.028 166.303C141.78 166.691 142.614 166.893 143.46 166.893C144.306 166.893 145.14 166.691 145.892 166.303C145.892 166.303 148.449 152.973 148.991 146.968C149.727 138.81 150.984 133.476 150.562 131.723C150.204 130.175 141.277 125.793 138.439 123.445L157.137 129.699C156.766 131.727 156.585 133.784 156.596 135.845C156.769 142.337 157.127 156.317 157.127 156.317C157.127 156.317 159.694 158.167 161.882 156.317C161.882 156.317 166.584 128.596 166.01 124.939C165.468 121.454 148.991 114.346 146.098 111.89C145.591 111.478 145.003 111.178 144.372 111.008C143.741 110.839 143.082 110.803 142.437 110.905L120.001 114.616Z" fill="#3D5AF1"/>
<path d="M164.829 119.204L152.273 111.955C152.163 111.891 152.038 111.857 151.91 111.857C151.783 111.857 151.658 111.891 151.547 111.955L129.513 124.668L142.437 132.112L164.829 119.204Z" fill="#F4F4F4"/>
<path d="M141.852 129.45L140.888 130.002C140.812 130.002 140.823 130.132 140.888 130.175L141.808 130.706C141.855 130.729 141.907 130.742 141.96 130.742C142.013 130.742 142.065 130.729 142.112 130.706L143.065 130.154C143.141 130.154 143.13 130.035 143.065 129.981L142.155 129.45C142.108 129.427 142.056 129.414 142.003 129.414C141.951 129.414 141.899 129.427 141.852 129.45Z" fill="#3A2C6D"/>
<path d="M143.206 128.671L142.242 129.223C142.166 129.223 142.177 129.342 142.242 129.396L143.162 129.927C143.21 129.95 143.261 129.963 143.314 129.963C143.367 129.963 143.419 129.95 143.466 129.927L144.419 129.375C144.495 129.375 144.495 129.256 144.419 129.202L143.509 128.671C143.462 128.648 143.41 128.635 143.357 128.635C143.305 128.635 143.253 128.648 143.206 128.671Z" fill="#3A2C6D"/>
<path d="M144.571 127.882L143.617 128.433C143.542 128.433 143.552 128.552 143.617 128.607L144.527 129.137C144.574 129.16 144.626 129.173 144.679 129.173C144.732 129.173 144.784 129.16 144.831 129.137L145.795 128.585C145.871 128.585 145.86 128.455 145.795 128.412L144.874 127.882C144.827 127.858 144.775 127.845 144.723 127.845C144.67 127.845 144.618 127.858 144.571 127.882Z" fill="#3A2C6D"/>
<path d="M145.914 127.103L144.961 127.654C144.874 127.654 144.885 127.784 144.961 127.838L145.871 128.358C145.917 128.384 145.969 128.398 146.022 128.398C146.076 128.398 146.128 128.384 146.174 128.358L147.138 127.806C147.214 127.806 147.203 127.687 147.138 127.633L146.228 127.113C146.181 127.09 146.129 127.077 146.077 127.077C146.024 127.077 145.972 127.09 145.925 127.113" fill="#3A2C6D"/>
<path d="M147.268 126.323L146.315 126.875C146.239 126.875 146.239 127.005 146.315 127.048L147.225 127.579C147.272 127.602 147.324 127.615 147.377 127.615C147.429 127.615 147.481 127.602 147.528 127.579L148.492 127.027C148.568 127.027 148.557 126.908 148.492 126.854L147.572 126.323C147.525 126.3 147.473 126.287 147.42 126.287C147.367 126.287 147.315 126.3 147.268 126.323Z" fill="#3A2C6D"/>
<path d="M148.622 125.512L147.669 126.064C147.593 126.064 147.604 126.183 147.669 126.237L148.579 126.767C148.626 126.791 148.678 126.803 148.731 126.803C148.784 126.803 148.835 126.791 148.883 126.767L149.847 126.215C149.922 126.215 149.912 126.096 149.847 126.042L148.926 125.512C148.879 125.488 148.827 125.476 148.774 125.476C148.721 125.476 148.67 125.488 148.622 125.512Z" fill="#3A2C6D"/>
<path d="M149.977 124.765L149.023 125.317C148.947 125.317 148.958 125.436 149.023 125.49L149.933 126.021C149.983 126.042 150.036 126.053 150.09 126.053C150.144 126.053 150.198 126.042 150.247 126.021L151.201 125.469C151.277 125.469 151.266 125.339 151.201 125.296L150.28 124.765C150.234 124.739 150.182 124.725 150.128 124.725C150.075 124.725 150.023 124.739 149.977 124.765Z" fill="#3A2C6D"/>
<path d="M151.331 123.976L150.377 124.527C150.302 124.527 150.312 124.657 150.377 124.711L151.287 125.231C151.336 125.257 151.39 125.271 151.445 125.271C151.499 125.271 151.554 125.257 151.602 125.231L152.555 124.679C152.631 124.679 152.62 124.56 152.555 124.506L151.645 123.986C151.596 123.962 151.542 123.95 151.488 123.95C151.433 123.95 151.38 123.962 151.331 123.986" fill="#3A2C6D"/>
<path d="M152.696 123.197L151.732 123.748C151.656 123.748 151.667 123.878 151.732 123.921L152.652 124.452C152.699 124.475 152.751 124.488 152.804 124.488C152.857 124.488 152.909 124.475 152.956 124.452L153.909 123.9C153.985 123.9 153.974 123.781 153.909 123.727L152.999 123.197C152.952 123.173 152.9 123.16 152.847 123.16C152.795 123.16 152.743 123.173 152.696 123.197Z" fill="#3A2C6D"/>
<path d="M154.05 122.417L153.086 122.969C153.01 122.969 153.021 123.088 153.086 123.142L154.007 123.673C154.054 123.696 154.106 123.709 154.158 123.709C154.211 123.709 154.263 123.696 154.31 123.673L155.263 123.121C155.339 123.121 155.339 123.002 155.263 122.948L154.353 122.417C154.306 122.394 154.254 122.381 154.202 122.381C154.149 122.381 154.097 122.394 154.05 122.417Z" fill="#3A2C6D"/>
<path d="M155.404 121.638L154.44 122.19C154.364 122.19 154.375 122.309 154.44 122.363L155.35 122.894C155.398 122.915 155.449 122.926 155.502 122.926C155.554 122.926 155.606 122.915 155.653 122.894L156.607 122.342C156.693 122.342 156.682 122.212 156.607 122.169L155.697 121.638C155.651 121.612 155.598 121.598 155.545 121.598C155.492 121.598 155.439 121.612 155.393 121.638" fill="#3A2C6D"/>
<path d="M156.758 120.849L155.805 121.4C155.718 121.4 155.729 121.53 155.805 121.584L156.715 122.104C156.762 122.127 156.814 122.14 156.867 122.14C156.919 122.14 156.971 122.127 157.018 122.104L157.982 121.552C158.058 121.552 158.047 121.422 157.982 121.368L157.072 120.849C157.025 120.825 156.973 120.812 156.921 120.812C156.868 120.812 156.816 120.825 156.769 120.849" fill="#3A2C6D"/>
<path d="M158.112 120.102L157.159 120.654C157.083 120.654 157.083 120.784 157.159 120.827L158.069 121.357C158.116 121.381 158.168 121.393 158.221 121.393C158.274 121.393 158.325 121.381 158.372 121.357L159.337 120.805C159.412 120.805 159.402 120.686 159.337 120.632L158.416 120.102C158.369 120.078 158.317 120.066 158.264 120.066C158.211 120.066 158.159 120.078 158.112 120.102Z" fill="#3A2C6D"/>
<path d="M160.117 118.912L158.513 119.842C158.437 119.842 158.437 119.961 158.513 120.015L159.423 120.546C159.47 120.569 159.522 120.582 159.575 120.582C159.628 120.582 159.68 120.569 159.727 120.546L161.341 119.615C161.417 119.615 161.406 119.496 161.341 119.442L160.431 118.912C160.382 118.888 160.328 118.875 160.274 118.875C160.219 118.875 160.166 118.888 160.117 118.912Z" fill="#3A2C6D"/>
<path d="M142.545 127.535L141.592 128.087C141.505 128.087 141.516 128.206 141.592 128.26L142.502 128.79C142.549 128.814 142.601 128.827 142.653 128.827C142.706 128.827 142.758 128.814 142.805 128.79L143.769 128.239C143.845 128.239 143.834 128.12 143.769 128.066L142.859 127.535C142.812 127.512 142.76 127.499 142.707 127.499C142.655 127.499 142.603 127.512 142.556 127.535" fill="#3A2C6D"/>
<path d="M143.899 126.745L142.946 127.297C142.87 127.297 142.881 127.427 142.946 127.481L143.856 128.001C143.903 128.024 143.955 128.037 144.007 128.037C144.06 128.037 144.112 128.024 144.159 128.001L145.123 127.449C145.199 127.449 145.188 127.319 145.123 127.265L144.202 126.745C144.155 126.722 144.104 126.709 144.051 126.709C143.998 126.709 143.946 126.722 143.899 126.745Z" fill="#3A2C6D"/>
<path d="M145.264 125.966L144.3 126.518C144.224 126.518 144.235 126.648 144.3 126.691L145.221 127.222C145.268 127.245 145.32 127.258 145.372 127.258C145.425 127.258 145.477 127.245 145.524 127.222L146.477 126.67C146.553 126.67 146.542 126.551 146.477 126.497L145.567 125.966C145.52 125.943 145.468 125.93 145.416 125.93C145.363 125.93 145.311 125.943 145.264 125.966Z" fill="#3A2C6D"/>
<path d="M146.607 125.187L145.654 125.739C145.568 125.739 145.578 125.858 145.654 125.912L146.564 126.443C146.611 126.466 146.663 126.479 146.716 126.479C146.769 126.479 146.82 126.466 146.867 126.443L147.821 125.891C147.907 125.891 147.897 125.761 147.821 125.718L146.911 125.187C146.864 125.164 146.812 125.151 146.759 125.151C146.706 125.151 146.655 125.164 146.607 125.187Z" fill="#3A2C6D"/>
<path d="M147.962 124.43L147.008 124.982C146.932 124.982 146.943 125.112 147.008 125.155L147.918 125.685C147.965 125.709 148.017 125.721 148.07 125.721C148.123 125.721 148.175 125.709 148.222 125.685L149.186 125.133C149.262 125.133 149.251 125.014 149.186 124.96L148.265 124.43C148.218 124.406 148.166 124.394 148.113 124.394C148.061 124.394 148.009 124.406 147.962 124.43Z" fill="#3A2C6D"/>
<path d="M149.327 123.629L148.362 124.181C148.287 124.181 148.297 124.3 148.362 124.354L149.283 124.884C149.331 124.906 149.383 124.917 149.435 124.917C149.487 124.917 149.539 124.906 149.587 124.884L150.54 124.333C150.616 124.333 150.605 124.203 150.54 124.159L149.63 123.629C149.584 123.603 149.532 123.589 149.478 123.589C149.425 123.589 149.373 123.603 149.327 123.629Z" fill="#3A2C6D"/>
<path d="M150.681 122.839L149.727 123.391C149.641 123.391 149.652 123.521 149.727 123.575L150.637 124.095C150.684 124.121 150.736 124.135 150.789 124.135C150.842 124.135 150.895 124.121 150.941 124.095L151.894 123.543C151.981 123.543 151.97 123.424 151.894 123.37L150.984 122.839C150.936 122.818 150.885 122.807 150.832 122.807C150.78 122.807 150.728 122.818 150.681 122.839Z" fill="#3A2C6D"/>
<path d="M152.024 122.06L151.071 122.612C150.995 122.612 151.006 122.731 151.071 122.785L152.024 123.348C152.071 123.372 152.123 123.384 152.176 123.384C152.229 123.384 152.28 123.372 152.327 123.348L153.292 122.796C153.368 122.796 153.357 122.677 153.292 122.623L152.371 122.093C152.324 122.069 152.272 122.057 152.219 122.057C152.166 122.057 152.114 122.069 152.067 122.093" fill="#3A2C6D"/>
<path d="M153.4 121.281L152.436 121.833C152.36 121.833 152.371 121.952 152.436 122.006L153.357 122.537C153.404 122.558 153.456 122.569 153.508 122.569C153.561 122.569 153.612 122.558 153.66 122.537L154.613 121.985C154.689 121.985 154.678 121.855 154.613 121.801L153.703 121.281C153.657 121.255 153.605 121.241 153.552 121.241C153.498 121.241 153.446 121.255 153.4 121.281Z" fill="#3A2C6D"/>
<path d="M154.754 120.492L153.801 121.043C153.714 121.043 153.725 121.173 153.801 121.216L154.711 121.747C154.758 121.77 154.81 121.783 154.862 121.783C154.915 121.783 154.967 121.77 155.014 121.747L155.978 121.195C156.054 121.195 156.043 121.076 155.978 121.022L155.068 120.492C155.021 120.468 154.969 120.455 154.917 120.455C154.864 120.455 154.812 120.468 154.765 120.492" fill="#3A2C6D"/>
<path d="M156.108 119.712L155.155 120.264C155.079 120.264 155.09 120.383 155.155 120.437L156.065 120.968C156.112 120.991 156.164 121.004 156.217 121.004C156.269 121.004 156.321 120.991 156.368 120.968L157.332 120.416C157.408 120.416 157.397 120.286 157.332 120.243L156.412 119.712C156.365 119.689 156.313 119.676 156.26 119.676C156.207 119.676 156.155 119.689 156.108 119.712Z" fill="#3A2C6D"/>
<path d="M157.441 118.923L156.477 119.474C156.401 119.474 156.412 119.604 156.477 119.658L157.397 120.178C157.444 120.202 157.496 120.214 157.549 120.214C157.602 120.214 157.654 120.202 157.701 120.178L158.654 119.626C158.73 119.626 158.719 119.496 158.654 119.442L157.744 118.923C157.697 118.899 157.645 118.886 157.593 118.886C157.54 118.886 157.488 118.899 157.441 118.923Z" fill="#3A2C6D"/>
<path d="M141.191 128.314L139.577 129.245C139.501 129.245 139.512 129.375 139.577 129.418L140.487 129.948C140.534 129.972 140.586 129.984 140.638 129.984C140.691 129.984 140.743 129.972 140.79 129.948L142.404 129.018C142.48 129.018 142.469 128.899 142.404 128.845L141.494 128.314C141.446 128.293 141.395 128.282 141.342 128.282C141.29 128.282 141.238 128.293 141.191 128.314Z" fill="#3A2C6D"/>
<path d="M160.052 118.869L159.098 119.42C159.054 119.441 159.006 119.452 158.957 119.452C158.909 119.452 158.861 119.441 158.817 119.42L157.852 118.858C157.766 118.858 157.766 118.739 157.852 118.695H157.928C157.942 118.688 157.953 118.677 157.961 118.664C157.969 118.65 157.973 118.635 157.973 118.62C157.973 118.604 157.969 118.589 157.961 118.576C157.953 118.562 157.942 118.551 157.928 118.544L156.899 117.949C156.883 117.943 156.868 117.932 156.858 117.917C156.848 117.903 156.843 117.885 156.843 117.868C156.843 117.85 156.848 117.833 156.858 117.818C156.868 117.804 156.883 117.793 156.899 117.787L157.506 117.44C157.552 117.419 157.602 117.408 157.652 117.408C157.703 117.408 157.752 117.419 157.798 117.44L158.752 117.992L158.947 118.1L159.087 118.187L159.228 118.273L160.052 118.739C160.138 118.739 160.138 118.858 160.052 118.912" fill="#3A2C6D"/>
<path d="M136.597 126.421L135.644 126.973C135.557 126.973 135.568 127.092 135.644 127.146L136.554 127.676C136.602 127.698 136.653 127.709 136.706 127.709C136.758 127.709 136.81 127.698 136.857 127.676L137.822 127.124C137.897 127.124 137.887 126.994 137.822 126.951L136.912 126.421C136.866 126.394 136.813 126.38 136.76 126.38C136.707 126.38 136.654 126.394 136.608 126.421" fill="#3A2C6D"/>
<path d="M137.941 125.642L136.977 126.194C136.901 126.194 136.912 126.313 136.977 126.367L137.897 126.897C137.945 126.918 137.997 126.93 138.049 126.93C138.101 126.93 138.153 126.918 138.201 126.897L139.154 126.345C139.23 126.345 139.23 126.215 139.154 126.172L138.244 125.642C138.198 125.615 138.146 125.601 138.093 125.601C138.039 125.601 137.987 125.615 137.941 125.642Z" fill="#3A2C6D"/>
<path d="M139.306 124.863L138.342 125.415C138.266 125.415 138.277 125.534 138.342 125.588L139.252 126.118C139.301 126.139 139.355 126.15 139.409 126.15C139.463 126.15 139.516 126.139 139.566 126.118L140.519 125.566C140.595 125.566 140.584 125.436 140.519 125.393L139.609 124.863C139.563 124.836 139.511 124.822 139.457 124.822C139.404 124.822 139.352 124.836 139.306 124.863Z" fill="#3A2C6D"/>
<path d="M150.811 118.219L149.858 118.771C149.771 118.771 149.782 118.901 149.858 118.944L150.767 119.474C150.815 119.498 150.866 119.511 150.919 119.511C150.972 119.511 151.024 119.498 151.071 119.474L152.035 118.923C152.111 118.923 152.1 118.804 152.035 118.749L151.114 118.219C151.067 118.196 151.015 118.183 150.962 118.183C150.91 118.183 150.858 118.196 150.811 118.219Z" fill="#3A2C6D"/>
<path d="M152.165 117.44L151.201 117.992C151.125 117.992 151.136 118.122 151.201 118.165L152.122 118.695C152.169 118.719 152.221 118.732 152.273 118.732C152.326 118.732 152.378 118.719 152.425 118.695L153.378 118.144C153.465 118.144 153.454 118.025 153.378 117.97L152.468 117.44C152.421 117.417 152.369 117.404 152.317 117.404C152.264 117.404 152.212 117.417 152.165 117.44Z" fill="#3A2C6D"/>
<path d="M153.519 116.661L152.555 117.213C152.479 117.213 152.49 117.343 152.555 117.386L153.476 117.916C153.523 117.94 153.575 117.953 153.628 117.953C153.68 117.953 153.732 117.94 153.779 117.916L154.733 117.365C154.808 117.365 154.798 117.246 154.733 117.191L153.822 116.661C153.775 116.637 153.724 116.625 153.671 116.625C153.618 116.625 153.566 116.637 153.519 116.661Z" fill="#3A2C6D"/>
<path d="M154.862 115.882L153.909 116.434C153.833 116.434 153.844 116.564 153.909 116.607L154.819 117.137C154.868 117.161 154.922 117.174 154.976 117.174C155.031 117.174 155.084 117.161 155.133 117.137L156.087 116.585C156.163 116.585 156.152 116.466 156.087 116.412L155.166 115.882C155.119 115.858 155.067 115.846 155.014 115.846C154.961 115.846 154.909 115.858 154.862 115.882Z" fill="#3A2C6D"/>
<path d="M140.996 123.878L139.696 124.636C139.62 124.636 139.631 124.755 139.696 124.809L140.606 125.339C140.653 125.36 140.705 125.371 140.757 125.371C140.81 125.371 140.861 125.36 140.909 125.339L142.22 124.581C142.296 124.581 142.285 124.462 142.22 124.408L141.31 123.878C141.261 123.854 141.207 123.842 141.153 123.842C141.098 123.842 141.045 123.854 140.996 123.878Z" fill="#3A2C6D"/>
<path d="M149.457 119.02L148.157 119.777C148.081 119.777 148.081 119.896 148.157 119.951L149.067 120.481C149.114 120.504 149.166 120.517 149.218 120.517C149.271 120.517 149.323 120.504 149.37 120.481L150.681 119.723C150.757 119.723 150.746 119.604 150.681 119.55L149.76 119.02C149.712 118.998 149.661 118.987 149.608 118.987C149.556 118.987 149.504 118.998 149.457 119.02Z" fill="#3A2C6D"/>
<path d="M147.756 119.983L141.397 123.651C141.321 123.651 141.332 123.77 141.397 123.824L142.307 124.354C142.354 124.378 142.406 124.39 142.458 124.39C142.511 124.39 142.563 124.378 142.61 124.354L148.98 120.686C149.056 120.686 149.045 120.556 148.98 120.513L148.07 119.983C148.021 119.959 147.967 119.947 147.913 119.947C147.858 119.947 147.805 119.959 147.756 119.983Z" fill="#3A2C6D"/>
<path d="M141.602 126.594L140.638 127.146C140.562 127.146 140.573 127.276 140.638 127.319L141.559 127.849C141.605 127.876 141.658 127.89 141.711 127.89C141.764 127.89 141.816 127.876 141.862 127.849L142.816 127.297C142.892 127.297 142.892 127.178 142.816 127.124L141.906 126.594C141.858 126.572 141.806 126.561 141.754 126.561C141.702 126.561 141.65 126.572 141.602 126.594Z" fill="#3A2C6D"/>
<path d="M142.957 125.782L141.992 126.334C141.917 126.334 141.927 126.464 141.992 126.507L142.913 127.038C142.96 127.061 143.012 127.074 143.065 127.074C143.118 127.074 143.17 127.061 143.217 127.038L144.17 126.486C144.246 126.486 144.246 126.367 144.17 126.313L143.26 125.782C143.213 125.759 143.161 125.746 143.108 125.746C143.056 125.746 143.004 125.759 142.957 125.782Z" fill="#3A2C6D"/>
<path d="M144.311 125.003L143.347 125.555C143.271 125.555 143.282 125.674 143.347 125.728L144.267 126.259C144.314 126.282 144.366 126.295 144.419 126.295C144.472 126.295 144.524 126.282 144.571 126.259L145.524 125.707C145.6 125.707 145.6 125.588 145.524 125.534L144.614 125.003C144.567 124.98 144.515 124.967 144.462 124.967C144.41 124.967 144.358 124.98 144.311 125.003Z" fill="#3A2C6D"/>
<path d="M145.665 124.224L144.701 124.776C144.625 124.776 144.636 124.895 144.701 124.949L145.622 125.48C145.669 125.503 145.721 125.516 145.773 125.516C145.826 125.516 145.878 125.503 145.925 125.48L146.878 124.928C146.954 124.928 146.954 124.798 146.878 124.755L145.968 124.224C145.921 124.201 145.869 124.188 145.817 124.188C145.764 124.188 145.712 124.201 145.665 124.224Z" fill="#3A2C6D"/>
<path d="M147.019 123.445L146.055 123.997C145.979 123.997 145.99 124.116 146.055 124.17L146.976 124.7C147.023 124.722 147.075 124.733 147.127 124.733C147.18 124.733 147.231 124.722 147.279 124.7L148.232 124.149C148.308 124.149 148.297 124.019 148.232 123.965L147.322 123.445C147.276 123.419 147.224 123.405 147.171 123.405C147.118 123.405 147.065 123.419 147.019 123.445Z" fill="#3A2C6D"/>
<path d="M148.373 122.656L147.409 123.207C147.333 123.207 147.344 123.337 147.409 123.391L148.33 123.911C148.377 123.934 148.429 123.947 148.482 123.947C148.534 123.947 148.586 123.934 148.633 123.911L149.587 123.359C149.663 123.359 149.652 123.229 149.587 123.175L148.677 122.656C148.63 122.632 148.578 122.619 148.525 122.619C148.472 122.619 148.42 122.632 148.373 122.656Z" fill="#3A2C6D"/>
<path d="M149.727 121.876L148.763 122.428C148.687 122.428 148.698 122.558 148.763 122.601L149.684 123.132C149.73 123.158 149.783 123.172 149.836 123.172C149.889 123.172 149.941 123.158 149.987 123.132L150.941 122.58C151.017 122.58 151.006 122.461 150.941 122.407L150.031 121.876C149.983 121.855 149.931 121.844 149.879 121.844C149.827 121.844 149.775 121.855 149.727 121.876Z" fill="#3A2C6D"/>
<path d="M151.082 121.097L150.117 121.649C150.042 121.649 150.052 121.779 150.117 121.822L151.038 122.353C151.085 122.376 151.137 122.389 151.19 122.389C151.243 122.389 151.295 122.376 151.342 122.353L152.295 121.801C152.371 121.801 152.36 121.682 152.295 121.628L151.385 121.097C151.338 121.074 151.286 121.061 151.233 121.061C151.181 121.061 151.129 121.074 151.082 121.097Z" fill="#3A2C6D"/>
<path d="M152.436 120.318L151.472 120.87C151.396 120.87 151.407 120.989 151.472 121.043L152.392 121.574C152.439 121.597 152.491 121.61 152.544 121.61C152.597 121.61 152.649 121.597 152.696 121.574L153.649 121.022C153.725 121.022 153.714 120.903 153.649 120.849L152.739 120.318C152.692 120.295 152.64 120.282 152.587 120.282C152.535 120.282 152.483 120.295 152.436 120.318Z" fill="#3A2C6D"/>
<path d="M153.779 119.539L152.826 120.091C152.75 120.091 152.761 120.21 152.826 120.264L153.747 120.794C153.794 120.818 153.846 120.831 153.898 120.831C153.951 120.831 154.003 120.818 154.05 120.794L155.003 120.243C155.079 120.243 155.068 120.113 155.003 120.07L154.093 119.539C154.044 119.515 153.991 119.503 153.936 119.503C153.882 119.503 153.828 119.515 153.779 119.539Z" fill="#3A2C6D"/>
<path d="M155.133 118.76L154.18 119.312C154.104 119.312 154.115 119.431 154.18 119.485L155.101 120.015C155.148 120.037 155.2 120.048 155.252 120.048C155.305 120.048 155.356 120.037 155.404 120.015L156.357 119.464C156.433 119.464 156.422 119.334 156.357 119.28L155.447 118.76C155.399 118.734 155.345 118.72 155.29 118.72C155.235 118.72 155.181 118.734 155.133 118.76Z" fill="#3A2C6D"/>
<path d="M156.487 117.938L155.534 118.49C155.458 118.49 155.469 118.62 155.534 118.674L156.444 119.193C156.493 119.217 156.547 119.229 156.601 119.229C156.656 119.229 156.709 119.217 156.758 119.193L157.712 118.641C157.787 118.641 157.777 118.511 157.712 118.457L156.802 117.938C156.753 117.914 156.699 117.902 156.645 117.902C156.59 117.902 156.536 117.914 156.487 117.938Z" fill="#3A2C6D"/>
<path d="M140.248 127.341L138.266 128.488C138.19 128.488 138.201 128.607 138.266 128.661L139.176 129.191C139.223 129.215 139.275 129.227 139.327 129.227C139.38 129.227 139.432 129.215 139.479 129.191L141.462 128.044C141.548 128.044 141.537 127.925 141.462 127.871L140.552 127.351C140.505 127.328 140.453 127.315 140.4 127.315C140.347 127.315 140.295 127.328 140.248 127.351" fill="#3A2C6D"/>
<path d="M139.609 126.194L138.656 126.745C138.58 126.745 138.591 126.864 138.656 126.919L139.566 127.449C139.613 127.473 139.665 127.485 139.718 127.485C139.77 127.485 139.822 127.473 139.869 127.449L140.833 126.897C140.909 126.897 140.898 126.778 140.833 126.724L139.912 126.194C139.865 126.17 139.814 126.158 139.761 126.158C139.708 126.158 139.656 126.17 139.609 126.194Z" fill="#3A2C6D"/>
<path d="M140.963 125.415L140.01 125.966C139.934 125.966 139.945 126.085 140.01 126.14L140.92 126.67C140.967 126.694 141.019 126.706 141.072 126.706C141.124 126.706 141.176 126.694 141.223 126.67L142.187 126.118C142.263 126.118 142.252 125.988 142.187 125.945L141.267 125.415C141.22 125.391 141.168 125.378 141.115 125.378C141.062 125.378 141.01 125.391 140.963 125.415Z" fill="#3A2C6D"/>
<path d="M142.274 124.636L141.321 125.187C141.245 125.187 141.256 125.306 141.321 125.361L142.231 125.891C142.28 125.915 142.333 125.927 142.388 125.927C142.442 125.927 142.496 125.915 142.545 125.891L143.498 125.339C143.574 125.339 143.563 125.209 143.498 125.166L142.577 124.636C142.53 124.612 142.479 124.599 142.426 124.599C142.373 124.599 142.321 124.612 142.274 124.636Z" fill="#3A2C6D"/>
<path d="M143.672 123.857L142.718 124.408C142.642 124.408 142.653 124.527 142.718 124.581L143.628 125.112C143.676 125.133 143.728 125.144 143.78 125.144C143.832 125.144 143.884 125.133 143.932 125.112L144.896 124.56C144.972 124.56 144.961 124.43 144.896 124.376L143.975 123.857C143.929 123.83 143.877 123.816 143.823 123.816C143.77 123.816 143.718 123.83 143.672 123.857Z" fill="#3A2C6D"/>
<path d="M145.026 123.067L144.073 123.618C143.997 123.618 144.008 123.748 144.073 123.802L144.983 124.322C145.03 124.346 145.081 124.358 145.134 124.358C145.187 124.358 145.239 124.346 145.286 124.322L146.25 123.77C146.326 123.77 146.315 123.64 146.25 123.586L145.329 123.067C145.282 123.043 145.23 123.031 145.178 123.031C145.125 123.031 145.073 123.043 145.026 123.067Z" fill="#3A2C6D"/>
<path d="M146.38 122.266L145.427 122.818C145.351 122.818 145.362 122.948 145.427 123.002L146.337 123.521C146.383 123.548 146.435 123.562 146.488 123.562C146.542 123.562 146.594 123.548 146.64 123.521L147.604 122.969C147.68 122.969 147.669 122.85 147.604 122.796L146.683 122.266C146.636 122.244 146.584 122.233 146.532 122.233C146.479 122.233 146.428 122.244 146.38 122.266Z" fill="#3A2C6D"/>
<path d="M147.691 121.509L146.737 122.06C146.662 122.06 146.672 122.19 146.737 122.234L147.647 122.764C147.695 122.787 147.746 122.8 147.799 122.8C147.852 122.8 147.904 122.787 147.951 122.764L148.915 122.212C148.991 122.212 148.98 122.093 148.915 122.039L147.994 121.509C147.947 121.485 147.895 121.472 147.843 121.472C147.79 121.472 147.738 121.485 147.691 121.509Z" fill="#3A2C6D"/>
<path d="M149.088 120.73L148.135 121.281C148.048 121.281 148.07 121.4 148.135 121.455L149.045 121.985C149.092 122.008 149.144 122.021 149.197 122.021C149.249 122.021 149.301 122.008 149.348 121.985L150.312 121.433C150.388 121.433 150.377 121.314 150.312 121.26L149.392 120.73C149.345 120.706 149.293 120.693 149.24 120.693C149.187 120.693 149.135 120.706 149.088 120.73Z" fill="#3A2C6D"/>
<path d="M150.442 119.951L149.489 120.502C149.403 120.502 149.413 120.621 149.489 120.675L150.399 121.206C150.446 121.229 150.498 121.242 150.551 121.242C150.604 121.242 150.655 121.229 150.702 121.206L151.667 120.654C151.742 120.654 151.732 120.524 151.667 120.481L150.746 119.951C150.699 119.927 150.647 119.914 150.594 119.914C150.541 119.914 150.49 119.927 150.442 119.951Z" fill="#3A2C6D"/>
<path d="M151.797 119.171L150.843 119.723C150.757 119.723 150.767 119.842 150.843 119.896L151.753 120.427C151.801 120.448 151.853 120.459 151.905 120.459C151.957 120.459 152.009 120.448 152.057 120.427L153.021 119.875C153.097 119.875 153.086 119.745 153.021 119.702L152.1 119.171C152.054 119.145 152.002 119.131 151.948 119.131C151.895 119.131 151.843 119.145 151.797 119.171Z" fill="#3A2C6D"/>
<path d="M153.107 118.392L152.154 118.944C152.067 118.944 152.078 119.063 152.154 119.117L153.064 119.648C153.112 119.669 153.164 119.68 153.216 119.68C153.268 119.68 153.32 119.669 153.367 119.648L154.332 119.096C154.407 119.096 154.397 118.966 154.332 118.912L153.411 118.392C153.365 118.366 153.312 118.352 153.259 118.352C153.206 118.352 153.154 118.366 153.107 118.392Z" fill="#3A2C6D"/>
<path d="M156.184 116.64L153.552 118.154C153.465 118.154 153.476 118.284 153.552 118.338L154.462 118.858C154.508 118.884 154.56 118.898 154.613 118.898C154.667 118.898 154.719 118.884 154.765 118.858L157.397 117.343C157.473 117.343 157.462 117.224 157.397 117.17L156.487 116.64C156.44 116.616 156.389 116.603 156.336 116.603C156.283 116.603 156.231 116.616 156.184 116.64Z" fill="#3A2C6D"/>
<path d="M138.255 126.973L136.955 127.73C136.879 127.73 136.89 127.849 136.955 127.903L137.865 128.433C137.913 128.455 137.964 128.466 138.017 128.466C138.069 128.466 138.121 128.455 138.168 128.433L139.479 127.676C139.555 127.676 139.544 127.557 139.479 127.503L138.558 126.973C138.511 126.949 138.459 126.937 138.407 126.937C138.354 126.937 138.302 126.949 138.255 126.973Z" fill="#3A2C6D"/>
<path d="M161.482 119.702L142.274 130.781C142.198 130.781 142.209 130.911 142.274 130.965L142.729 131.225C142.778 131.249 142.832 131.261 142.886 131.261C142.941 131.261 142.994 131.249 143.043 131.225L162.262 120.102C162.348 120.102 162.337 119.983 162.262 119.929L161.807 119.669C161.761 119.643 161.708 119.629 161.655 119.629C161.602 119.629 161.549 119.643 161.503 119.669" fill="#3A2C6D"/>
<path d="M138.992 120.189L139.122 120.264L142.437 122.179L148.341 118.771L148.471 118.706L145.015 116.715L138.992 120.189Z" fill="#BFBFBF"/>
<path d="M139.122 120.264L142.437 122.179L148.341 118.771L145.015 116.856L139.122 120.264Z" fill="#E5E5E5"/>
<path d="M129.512 124.668V124.96C129.505 125.179 129.558 125.395 129.665 125.585C129.772 125.776 129.929 125.934 130.119 126.042L141.83 132.794C142.012 132.9 142.22 132.956 142.431 132.956C142.643 132.956 142.85 132.9 143.032 132.794L164.222 120.578C164.413 120.47 164.57 120.312 164.676 120.121C164.783 119.931 164.836 119.715 164.829 119.496V119.204L142.437 132.112L129.512 124.668Z" fill="#E5E5E5"/>
<path d="M142.772 132.296C142.973 132.372 143.187 132.402 143.401 132.386C143.614 132.369 143.822 132.305 144.008 132.199L165.1 120.037C165.284 119.932 165.443 119.787 165.565 119.613C165.687 119.439 165.768 119.24 165.804 119.031L168.112 105.279C168.117 105.199 168.117 105.12 168.112 105.041C168.111 104.659 167.959 104.293 167.689 104.023L145.763 116.672C145.628 116.75 145.512 116.856 145.422 116.983C145.332 117.11 145.271 117.255 145.242 117.408L142.772 132.296Z" fill="#F4F4F4"/>
<path d="M142.437 132.112L142.577 132.199L142.772 132.296L145.264 117.408C145.293 117.255 145.354 117.11 145.444 116.983C145.534 116.856 145.65 116.75 145.784 116.672L167.711 104.023C167.626 103.936 167.527 103.863 167.418 103.807L145.448 116.466C145.313 116.546 145.196 116.654 145.106 116.783C145.016 116.911 144.956 117.058 144.928 117.213L142.437 132.112Z" fill="#E5E5E5"/>
<path d="M126.512 73.2514C126.512 73.2514 126.782 78.4883 126.663 78.9535C126.544 79.4188 124.258 80.9444 123.587 81.4962C122.915 82.0481 127.216 86.2679 129.296 87.2309C131.376 88.1938 137.962 85.6619 138.114 82.4268C138.266 79.1916 136.977 76.4649 135.947 76.3135C134.918 76.162 126.49 73.2514 126.49 73.2514" fill="#FFCEA9"/>
<path d="M125.927 79.8516C125.927 79.8516 129.729 85.5104 135.027 86.0406C136.706 84.396 136.858 78.5315 134.539 76.6597C134.539 76.6597 136.706 74.9501 138.125 75.2856C139.682 76.2308 140.838 77.7127 141.375 79.4513C142.727 83.3445 143.362 87.4503 143.249 91.5696C143.163 97.1203 143.249 111.165 143.249 111.165C142.935 112.823 142.274 114.397 141.309 115.782C140.344 117.168 139.096 118.334 137.648 119.204C133.823 121.352 129.324 121.97 125.06 120.935C122.373 120.308 121.377 118.771 120.456 116.856C120.694 112.972 122.232 104.954 121.539 100.063C120.846 95.1727 119.86 91.5155 119.589 87.5554C119.318 83.5953 120.109 83.6819 122.092 82.2644C123.286 81.3721 124.542 80.5657 125.851 79.8516" fill="#F4F4F4"/>
<path d="M132.026 124.96C131.069 124.329 130.074 123.758 129.047 123.251C128.083 122.951 127.206 122.424 126.49 121.714C125.558 120.794 124.031 117.386 122.947 113.989C121.865 110.193 121.44 106.241 121.691 102.303C122.157 97.5748 123.857 90.9746 124.291 88.2371C124.724 85.4996 123.847 84.4393 122.579 83.433C121.095 82.2645 119.047 82.7838 117.953 86.5816C116.525 91.8754 115.693 97.3119 115.473 102.79C115.442 106.834 116.078 110.855 117.357 114.692C118.485 117.986 120.013 121.129 121.908 124.051C122.428 124.928 122.59 125.707 123.392 127.503C124.16 129.301 125.353 130.887 126.869 132.123C128.202 133.075 128.83 133.205 129.144 133.032C129.458 132.859 129.458 132.372 128.895 131.863C127.952 131.129 127.148 130.231 126.522 129.212C126.522 129.212 127.692 130.381 128.451 131.009C129.122 131.581 129.87 132.058 130.672 132.426C131.452 132.772 132.535 132.112 131.982 131.593C131.43 131.073 130.899 130.803 129.751 129.851C129.16 129.342 128.633 128.765 128.18 128.13C128.958 128.731 129.784 129.267 130.65 129.732C131.327 130.147 132.109 130.358 132.903 130.338C133.315 130.338 133.813 129.753 133.044 129.191C131.982 128.64 130.989 127.964 130.087 127.178C129.242 126.334 128.754 125.62 129.003 125.609C129.252 125.599 129.707 126.118 130.704 126.432C131.701 126.745 132.773 126.432 132.871 125.923C132.968 125.415 132.968 125.469 132.037 125.014" fill="#FFCEA9"/>
<path d="M138.363 65.4502C137.746 61.3818 134.81 58.309 130.617 58.5362C128.482 58.6672 126.485 59.6378 125.064 61.2357C123.642 62.8335 122.913 64.9285 123.034 67.0623C123.103 68.2955 123.456 69.496 124.067 70.5698C124.678 71.6435 125.529 72.5614 126.555 73.2514C126.7 73.8665 126.919 74.4622 127.205 75.0259C128.689 76.7571 133.174 77.8282 134.463 77.6443C135.229 77.5762 135.957 77.2798 136.552 76.7936C137.147 76.3074 137.582 75.6538 137.8 74.9177C139.197 71.7258 138.753 67.4519 138.407 65.4502" fill="#FFCEA9"/>
<path d="M126.512 73.2514L126.891 69.7024C126.891 69.7024 123.998 62.2042 130.845 63.6432C135.362 64.5954 136.5 65.0065 137.876 61.9769C139.252 58.9473 134.398 56.2207 128.635 56.9781C126.65 57.1865 124.816 58.1317 123.496 59.6266C122.176 61.1215 121.466 63.057 121.507 65.0498C121.658 67.2787 122.254 71.7907 126.512 73.2514Z" fill="#3A2C6D"/>
<path d="M114.779 93.593C114.779 93.593 118.517 97.3151 122.947 96.2439C123.576 95.8111 125.114 87.1335 125.114 87.1335C125.114 87.1335 125.114 82.3186 121.42 82.4484C117.726 82.5783 114.801 93.593 114.801 93.593" fill="#EDEDED"/>
<path d="M143.011 86.3977C144.058 86.3554 145.048 85.9094 145.773 85.1534C145.632 83.2166 143.141 75.8374 138.125 75.2856C139.49 76.2397 140.572 77.5444 141.256 79.0617C142.03 81.458 142.617 83.9107 143.011 86.3977Z" fill="#EDEDED"/>
<g opacity="0.4">
<g opacity="0.4">
<path opacity="0.4" d="M162.857 536.315C160.182 542.147 148.666 542.591 137.128 537.31C125.591 532.03 118.441 523.017 121.106 517.196C123.771 511.375 135.297 510.92 146.835 516.2C158.372 521.481 165.555 530.494 162.868 536.326" fill="#D6D8E5"/>
</g>
</g>
<path d="M123.63 431.88C123.63 431.88 124.345 442.625 125.797 444.172C127.248 445.719 131.982 446.779 131.982 446.779L135.666 452.817C135.666 452.817 132.307 433.611 131.571 433.146C130.834 432.681 123.673 431.88 123.673 431.88" fill="#FFCEA9"/>
<path d="M130.704 419.946C129.808 419.535 128.793 419.465 127.849 419.75C126.905 420.035 126.098 420.655 125.58 421.493C124.226 423.733 122.828 431.415 122.698 432.724C122.698 432.724 124.594 435.343 127.443 434.888L130.704 419.946Z" fill="#EDEDED"/>
<path d="M141.592 527.194C143.594 527.754 145.737 527.497 147.55 526.48C148.98 526.48 156.758 523.234 157.82 525.993C158.752 528.438 155.383 530.699 153.573 531.143C149.652 532.095 146.738 534.043 145.156 534.389C143.986 534.638 142.458 534.8 141.527 533.88C140.443 532.798 140.498 528.665 141.592 527.204" fill="#38226D"/>
<path d="M145.156 533.696C146.738 533.372 149.652 531.413 153.573 530.45C155.09 530.083 157.69 528.438 157.907 526.469C158.253 528.719 155.209 530.721 153.573 531.121C149.652 532.073 146.738 534.032 145.156 534.367C143.986 534.616 142.458 534.778 141.527 533.859C141.283 533.589 141.105 533.267 141.007 532.917C141.59 533.36 142.269 533.66 142.99 533.794C143.71 533.927 144.452 533.89 145.156 533.686" fill="#3D5AF1"/>
<path d="M129.48 523.428C131.481 523.98 133.618 523.719 135.427 522.703C136.868 522.703 144.647 519.457 145.708 522.217C146.629 524.662 143.26 526.923 141.462 527.367C137.529 528.319 134.626 530.277 133.044 530.613C131.863 530.862 130.347 531.024 129.404 530.104C128.321 529.022 128.375 524.9 129.48 523.439" fill="#38226D"/>
<path d="M133.044 529.931C134.626 529.596 137.529 527.637 141.462 526.685C142.968 526.317 145.567 524.673 145.795 522.703C146.152 524.965 143.108 526.956 141.462 527.367C137.529 528.319 134.626 530.277 133.044 530.613C131.863 530.862 130.347 531.024 129.404 530.104C129.16 529.837 128.985 529.513 128.895 529.163C129.478 529.607 130.157 529.908 130.877 530.044C131.598 530.179 132.34 530.144 133.044 529.942" fill="#3D5AF1"/>
<path d="M128.613 501.572C128.953 498.685 129.555 495.835 130.412 493.057C130.412 493.057 129.881 485.71 129.61 478.742C129.307 470.843 126.566 463.886 128.732 457.578L152.826 462.988C152.826 462.988 151.667 494.561 151.342 498.38C151.165 501.35 150.803 504.306 150.258 507.231C149.175 513.344 147.929 527.031 147.929 527.031C145.34 528.535 141.559 527.302 141.559 527.302C141.559 527.302 141.559 510.163 141.711 505.759C141.917 500.349 142.079 500.782 142.079 500.782L141.267 487.376L140.747 480.711C140.747 480.711 140.064 485.602 139.663 489.973C139.273 493.781 138.352 497.233 137.323 504.331C136.435 510.488 135.514 523.028 135.514 523.028C132.925 524.532 129.458 523.493 129.458 523.493C129.458 523.493 127.963 506.96 128.657 501.626" fill="#3D5AF1"/>
<path d="M131.993 420.086C133.857 420.173 135.243 420.649 135.471 420.086C135.672 419.126 135.813 418.154 135.893 417.176C135.687 416.646 135.503 416.094 135.503 416.094C133.163 414.655 132.427 412.134 132.123 409.202C131.592 404.181 134.29 399.788 139.327 399.269C144.051 398.782 147.528 402.093 148.46 406.648C148.958 408.888 149.944 413.14 148.601 416.83C147.853 418.896 146.889 420.541 145.914 420.866C144.979 420.833 144.046 420.75 143.119 420.617C143.119 420.617 142.87 422.012 142.697 422.91C142.523 423.809 142.588 424.274 144.376 425.367C146.163 426.459 141.678 428.721 138.753 428.504C135.828 428.288 132.535 426.514 131.625 424.62C130.617 422.521 130.704 420.032 131.982 420.097" fill="#FFCEA9"/>
<path d="M134.691 420.357C134.171 421.645 135.482 423.213 138.97 424.306C142.458 425.399 142.783 423.993 142.783 423.993C145.108 425.03 147.372 426.196 149.565 427.487C151.667 428.948 152.598 433.19 152.88 440.331C153.205 448.608 153.227 460.889 152.956 463.053C152.956 463.053 149.034 466.959 144.029 466.548C139.024 466.136 130.574 461.7 128.527 458.281C128.592 451.021 129.437 449.842 128.256 445.665C125.569 436.1 124.15 432.183 125.461 425.821C126.544 420.584 128.05 419.935 130.119 419.978C131.65 420.043 133.176 420.187 134.691 420.411" fill="#F4F4F4"/>
<path d="M148.547 469.372L146.001 440.558L151.417 437.712L153.519 439.465L152.869 465.347V466.061V466.97C152.869 466.97 152.988 469.134 148.872 471.752C148.872 471.752 148.807 471.07 148.752 470.432L148.655 469.35L148.547 469.372Z" fill="#FFCEA9"/>
<path d="M147.908 425.702C150.681 425.648 152.457 427.12 153.129 431.393C153.801 435.667 154.212 439.162 154.212 439.162C152.938 440.584 151.166 441.464 149.262 441.618C145.903 441.986 144.928 440.287 144.928 440.287C144.928 440.287 144.582 435.84 144.387 432.832C144.192 429.825 144.473 425.767 147.908 425.702Z" fill="#EDEDED"/>
<path d="M143.228 398.035C136.446 397.072 132.091 401.422 131.582 406.14C131.105 410.651 133.889 415.337 135.915 417.198C137.888 417.705 139.98 417.454 141.776 416.494C141.89 415.264 141.933 414.029 141.906 412.794C141.906 412.794 138.602 405.847 148.319 405.966C148.319 405.966 152.653 399.377 143.249 398.035" fill="#3A2C6D"/>
<path d="M176.096 299.281C175.847 301.521 173.171 311.183 173.745 314.429C174.319 317.675 183.441 323.258 183.441 323.258L184.697 317.599L179.649 312.698L181.014 303.328L176.096 299.281Z" fill="#FFCEA9"/>
<path d="M183.148 289.781C182.262 289.37 181.255 289.3 180.32 289.583C179.385 289.866 178.587 290.484 178.078 291.318C176.735 293.536 175.337 301.153 175.218 302.451C175.218 302.451 177.092 305.048 179.92 304.615L183.148 289.781Z" fill="#EDEDED"/>
<path d="M193.57 397.278C195.555 397.827 197.677 397.57 199.474 396.564C200.893 396.564 208.607 393.318 209.658 396.077C210.578 398.501 207.231 400.751 205.454 401.184C201.554 402.125 198.672 404.062 197.102 404.43C195.932 404.679 194.426 404.841 193.494 403.921C192.411 402.839 192.476 398.76 193.57 397.31" fill="#38226D"/>
<path d="M197.102 403.727C198.672 403.391 201.554 401.454 205.454 400.481C206.949 400.113 209.528 398.479 209.788 396.531C210.134 398.771 207.112 400.751 205.454 401.151C201.554 402.093 198.672 404.03 197.102 404.397C195.932 404.646 194.426 404.809 193.494 403.889C193.256 403.621 193.082 403.303 192.985 402.958C193.565 403.396 194.238 403.694 194.953 403.827C195.667 403.96 196.403 403.926 197.102 403.727Z" fill="#3D5AF1"/>
<path d="M181.047 391.684C183.032 392.234 185.154 391.977 186.951 390.97C188.381 390.97 196.094 387.724 197.145 390.483C198.066 392.917 194.718 395.157 192.931 395.59C189.031 396.531 186.149 398.479 184.589 398.836C183.419 399.085 181.913 399.247 180.982 398.328C179.898 397.246 179.963 393.166 181.047 391.716" fill="#38226D"/>
<path d="M184.589 398.111C186.149 397.786 189.031 395.839 192.931 394.865C194.426 394.508 197.004 392.863 197.264 390.916C197.611 393.156 194.599 395.136 192.931 395.536C189.031 396.477 186.149 398.425 184.589 398.782C183.419 399.031 181.913 399.193 180.982 398.273C180.737 398.01 180.562 397.69 180.473 397.343C181.051 397.783 181.725 398.082 182.44 398.215C183.154 398.348 183.891 398.313 184.589 398.111Z" fill="#3D5AF1"/>
<path d="M180.895 370.726C181.229 367.86 181.827 365.031 182.682 362.275C182.682 362.275 182.152 354.993 181.881 348.09C181.577 340.246 178.858 333.353 181.003 327.099L205.216 332.509C205.216 332.509 203.753 363.758 203.428 367.545C203.253 370.486 202.892 373.413 202.345 376.309C201.262 382.379 199.442 396.813 199.442 396.813C197.601 397.693 195.516 397.925 193.527 397.473C193.527 397.473 193.711 379.23 193.873 374.859C194.079 369.514 194.242 369.925 194.242 369.925L193.44 356.627L192.909 350.016C192.909 350.016 192.237 354.874 191.826 359.202C191.447 362.989 190.537 366.408 189.518 373.441C188.63 379.544 187.189 391.835 187.189 391.835C184.632 393.318 181.155 392.084 181.155 392.084C181.155 392.084 180.223 376.071 180.917 370.78" fill="#FF7B7B"/>
<path d="M184.437 289.911C186.279 290.008 187.687 290.485 187.882 289.911C188.084 288.962 188.225 288 188.305 287.033C188.088 286.503 187.904 285.951 187.904 285.951C185.607 284.566 184.86 282.023 184.524 279.156C184.004 274.179 186.691 269.829 191.674 269.31C196.365 268.823 199.81 272.112 200.72 276.624C201.218 278.853 202.204 283.062 200.872 286.73C200.135 288.775 199.171 290.398 198.207 290.723C197.278 290.69 196.352 290.607 195.433 290.474C195.433 290.474 195.184 291.859 195.011 292.746C194.837 293.633 194.902 294.098 196.679 295.191C198.456 296.284 194.003 298.513 191.1 298.297C188.197 298.08 184.936 296.327 184.037 294.455C183.04 292.356 183.127 289.9 184.394 289.954" fill="#FFCEA9"/>
<path d="M187.103 290.192C186.593 291.458 187.893 293.016 191.349 294.109C194.805 295.202 195.13 293.795 195.13 293.795C197.437 294.821 199.683 295.977 201.857 297.258C203.937 298.708 204.858 302.906 205.107 309.993C205.432 318.205 205.465 330.378 205.183 332.477C205.183 332.477 201.305 336.34 196.332 335.939C191.36 335.539 182.997 331.135 180.971 327.738C181.025 320.542 181.859 319.374 180.7 315.23C178.024 305.741 176.627 301.856 177.916 295.548C178.999 290.355 180.494 289.705 182.542 289.76C184.058 289.824 185.569 289.968 187.07 290.192" fill="#F4F4F4"/>
<path d="M212.962 316.777C208.877 317.859 207.924 315.241 207.382 313.109C206.083 307.959 205.389 303.306 204.414 300.385C203.277 296.933 202.085 296.392 200.406 295.711C198.434 294.932 196.744 296.587 197.394 300.98C198.202 306.067 199.452 311.074 201.132 315.944C201.641 317.556 202.778 320.402 204.49 321.776C206.592 323.475 209.766 323.41 214.554 322.209C216.602 321.7 218.887 320.488 222.722 318.681C223.752 318.195 224.564 317.881 226.557 316.95C228.56 316.052 230.315 314.682 231.671 312.958C232.754 311.454 232.852 310.74 232.646 310.393C232.44 310.047 231.898 310.058 231.346 310.696C230.54 311.772 229.545 312.692 228.41 313.412C228.41 313.412 229.699 312.081 230.392 311.248C231.019 310.481 231.54 309.633 231.942 308.727C232.31 307.851 231.552 306.65 230.967 307.277C230.382 307.905 230.122 308.543 229.06 309.809C228.502 310.48 227.869 311.086 227.175 311.616C227.827 310.73 228.406 309.792 228.908 308.814C229.363 308.05 229.585 307.17 229.547 306.282C229.547 305.827 228.865 305.275 228.258 306.152C227.667 307.346 226.94 308.467 226.092 309.495C225.16 310.458 224.358 311.01 224.337 310.74C224.315 310.469 224.9 309.95 225.236 308.824C225.572 307.699 225.236 306.509 224.607 306.379C223.979 306.249 224.109 306.282 223.611 307.331C222.926 308.415 222.307 309.538 221.758 310.696C221.443 311.782 220.867 312.774 220.079 313.585C219.072 314.667 216.829 315.825 212.983 316.831" fill="#FFCEA9"/>
<path d="M198.9 295.007C201.619 294.607 203.548 295.84 204.75 299.963C205.953 304.085 206.797 307.461 206.797 307.461C205.715 309.015 204.08 310.098 202.226 310.491C198.976 311.281 197.795 309.722 197.795 309.722C197.795 309.722 196.896 305.394 196.333 302.462C195.769 299.53 195.52 295.505 198.9 295.007Z" fill="#EDEDED"/>
<path d="M200.601 275.91C200.601 275.91 204.934 269.418 195.574 268.044C188.847 267.081 184.524 271.398 184.026 276.083C183.549 280.552 186.312 285.204 188.305 287.044C190.264 287.545 192.34 287.294 194.122 286.34C194.229 285.125 194.269 283.904 194.242 282.683C194.242 282.683 190.992 275.791 200.601 275.91Z" fill="#3A2C6D"/>
<path d="M285.74 423.971L285.772 433.687L383.067 490.168L383.034 480.451L285.74 423.971Z" fill="#D3D3DD"/>
<path d="M383.034 480.451L383.067 490.168L481 433.698L480.968 423.982L383.034 480.451Z" fill="#E0DEE9"/>
<path d="M285.74 423.971L383.034 480.451L480.968 423.982L383.673 367.501L285.74 423.971Z" fill="#EAEAF4"/>
<path d="M300.918 276.7L301.329 422.478L383.218 469.999L382.807 324.232L300.918 276.7Z" fill="#D3D3DD"/>
<path d="M382.807 324.232L383.218 469.999L465.649 422.478L465.238 276.7L382.807 324.232Z" fill="#E0DEE9"/>
<path d="M300.917 276.7L382.807 324.232L465.237 276.7L383.348 229.168L300.917 276.7Z" fill="#EAEAF4"/>
<path d="M443.993 340.44L444.037 355.556L457.199 347.96L457.156 332.856L443.993 340.44Z" fill="#2A313F"/>
<path d="M443.928 319.417L443.972 334.522L457.134 326.937L457.091 311.832L443.928 319.417Z" fill="#2A313F"/>
<path d="M443.874 298.394L443.917 313.509L457.069 305.914L457.037 290.798L443.874 298.394Z" fill="#2A313F"/>
<path d="M390.802 392.171L390.845 407.286L438.078 380.053L438.035 364.937L390.802 392.171Z" fill="#2A313F"/>
<path d="M390.748 371.148L390.791 386.263L438.013 359.029L437.97 343.914L390.748 371.148Z" fill="#2A313F"/>
<path d="M390.682 350.124L390.726 365.229L437.959 337.995L437.916 322.89L390.682 350.124Z" fill="#2A313F"/>
<path d="M390.628 329.09L390.672 344.206L437.894 316.972L437.851 301.867L390.628 329.09Z" fill="#2A313F"/>
<path d="M444.112 382.487L444.156 397.603L457.318 390.007L457.275 374.902L444.112 382.487Z" fill="#2A313F"/>
<path d="M444.047 361.464L444.091 376.579L457.253 368.994L457.21 353.879L444.047 361.464Z" fill="#2A313F"/>
<path d="M390.867 413.194L390.91 428.31L438.133 401.076L438.089 385.96L390.867 413.194Z" fill="#2A313F"/>
<path d="M362.018 342.691L361.974 357.807L375.147 365.402L375.191 350.287L362.018 342.691Z" fill="#2A313F"/>
<path d="M362.083 321.668L362.039 336.783L375.202 344.379L375.245 329.263L362.083 321.668Z" fill="#2A313F"/>
<path d="M308.598 375.075L308.555 390.18L355.788 417.414L355.832 402.309L308.598 375.075Z" fill="#2A313F"/>
<path d="M308.663 354.041L308.62 369.157L355.842 396.391L355.886 381.275L308.663 354.041Z" fill="#2A313F"/>
<path d="M308.718 333.029L308.674 348.134L355.908 375.367L355.951 360.252L308.718 333.029Z" fill="#2A313F"/>
<path d="M308.783 311.995L308.739 327.11L355.962 354.344L356.005 339.229L308.783 311.995Z" fill="#2A313F"/>
<path d="M308.837 290.971L308.793 306.076L356.027 333.321L356.07 318.205L308.837 290.971Z" fill="#2A313F"/>
<path d="M361.844 405.772L361.801 420.876L374.963 428.472L375.007 413.367L361.844 405.772Z" fill="#2A313F"/>
<path d="M361.898 384.737L361.855 399.853L375.028 407.449L375.072 392.333L361.898 384.737Z" fill="#2A313F"/>
<path d="M361.963 363.725L361.92 378.83L375.082 386.425L375.126 371.321L361.963 363.725Z" fill="#2A313F"/>
<path d="M301.297 410.716L301.329 422.467L383.218 469.999L383.197 457.967L301.297 410.716Z" fill="#3D5AF1"/>
<path d="M383.197 457.967L383.229 469.999L465.649 422.478L465.617 410.435L383.197 457.967Z" fill="#3D5AF1"/>
<path d="M383.728 278.626C383.417 278.647 383.106 278.647 382.796 278.626L378.116 281.331C381.463 282.348 385.038 282.348 388.386 281.331L383.728 278.626Z" fill="#2A313F"/>
<path d="M404.083 261.498C392.167 255.731 374.638 255.731 362.635 261.498L366.86 263.943C376.513 259.507 390.238 259.507 399.826 263.943L404.083 261.498Z" fill="#2A313F"/>
<path d="M396.858 265.663C388.197 262.158 378.51 262.158 369.85 265.663L374.108 268.141C380.05 265.948 386.582 265.948 392.524 268.141L396.858 265.663Z" fill="#2A313F"/>
<path d="M388.451 270.5C385.1 269.483 381.521 269.483 378.17 270.5L382.774 273.205H383.728L388.451 270.5Z" fill="#2A313F"/>
<path d="M378.592 276.191C378.571 276.012 378.571 275.83 378.592 275.65L373.934 272.945C373.521 273.322 373.192 273.781 372.966 274.293C372.741 274.804 372.624 275.357 372.624 275.915C372.624 276.474 372.741 277.027 372.966 277.538C373.192 278.05 373.521 278.508 373.934 278.885L378.592 276.191Z" fill="#2A313F"/>
<path d="M369.774 281.32C365.983 278.074 365.993 273.833 369.774 270.63L365.517 268.163C359.418 272.751 359.385 279.199 365.43 283.787L369.774 281.32Z" fill="#2A313F"/>
<path d="M396.771 270.576C400.563 273.822 400.53 278.063 396.695 281.266L400.963 283.733C407.063 279.145 407.095 272.696 401.05 268.109L396.771 270.576Z" fill="#2A313F"/>
<path d="M362.516 285.464C354.933 279.903 354.932 271.95 362.624 266.388L358.399 263.932C348.411 270.857 348.346 280.985 358.269 287.909L362.516 285.464Z" fill="#2A313F"/>
<path d="M399.696 287.899C390.054 292.324 376.307 292.324 366.73 287.899L362.483 290.355C374.4 296.111 391.918 296.111 403.91 290.355L399.696 287.899Z" fill="#2A313F"/>
<path d="M404.04 266.388C411.623 271.939 411.623 279.892 403.932 285.464L408.146 287.909C418.156 280.985 418.21 270.857 408.287 263.932L404.04 266.388Z" fill="#2A313F"/>
<path d="M392.47 283.7C386.528 285.894 379.996 285.894 374.053 283.7L369.72 286.178C378.382 289.694 388.076 289.694 396.738 286.178L392.47 283.7Z" fill="#2A313F"/>
<path d="M387.974 275.65C388.001 275.83 388.001 276.012 387.974 276.191L392.633 278.896C393.049 278.52 393.381 278.061 393.609 277.548C393.836 277.036 393.954 276.481 393.954 275.921C393.954 275.36 393.836 274.806 393.609 274.293C393.381 273.781 393.049 273.322 392.633 272.945L387.974 275.65Z" fill="#2A313F"/>
</svg>
