<svg width="37" height="34" viewBox="0 0 37 34" fill="none" xmlns="http://www.w3.org/2000/svg">
<path fill-rule="evenodd" clip-rule="evenodd" d="M2.27756 9.6547L15 2.3094L16.5 3.17543L7.27756 8.5V25.5L16.5 30.8246L15 31.6906L2.27756 24.3453V9.6547ZM18.5 31.9793L15 34L0.27756 25.5V8.5L15 0L18.5 2.02073L22 0L36.7224 8.5V25.5L22 34L18.5 31.9793ZM20.5 3.17543L22 2.3094L34.7224 9.6547V24.3453L22 31.6906L20.5 30.8246L29.7224 25.5V8.5L20.5 3.17543ZM18.5 4.33013L27.7224 9.6547V24.3453L18.5 29.6699L9.27756 24.3453V9.6547L18.5 4.33013Z" fill="#3D5AF1"/>
</svg>
